<?xml version="1.0" encoding="utf-8"?>
<!-- Generator: Adobe Illustrator 23.0.1, SVG Export Plug-In . SVG Version: 6.00 Build 0)  -->
<svg version="1.1" id="Layer_1" xmlns="http://www.w3.org/2000/svg" xmlns:xlink="http://www.w3.org/1999/xlink" x="0px" y="0px"
	 viewBox="0 0 107.44 7.6" style="enable-background:new 0 0 107.44 7.6;" xml:space="preserve">
<style type="text/css">
	.st0{fill:#C0973D;}
</style>
<g>
	<g>
		<path class="st0" d="M69.1,3.3h36.27c0.24,0,2.07-0.44,2.07-0.44s-1.88-0.44-2.12-0.44H69.1c-0.24,0-0.44,0.2-0.44,0.44
			C68.66,3.11,68.86,3.3,69.1,3.3z"/>
	</g>
	<path class="st0" d="M48.93,3.81c0.26,0.16,0.41,0.41,0.41,0.72c0,0.31-0.13,0.64-0.34,0.92c-0.21,0.28-0.49,0.51-0.8,0.65
		c-0.31,0.14-0.65,0.15-0.99,0.06c-0.67-0.18-1.17-0.8-1.35-1.48c-0.09-0.34-0.11-0.71-0.07-1.06c0.02-0.18,0.06-0.35,0.12-0.52
		c0.06-0.16,0.13-0.31,0.24-0.45c0.43-0.58,1.1-0.91,1.73-1.17c0.32-0.13,0.65-0.25,0.99-0.32c0.34-0.08,0.7-0.1,1.05-0.12
		c1.44-0.03,2.91,0.45,4.25,1.16c0.68,0.35,1.32,0.77,1.94,1.23c0.31,0.23,0.6,0.48,0.9,0.72c0.3,0.26,0.61,0.51,0.92,0.75
		c0.63,0.48,1.29,0.92,1.99,1.3c0.7,0.39,1.44,0.71,2.21,0.93c0.78,0.22,1.59,0.35,2.41,0.32c0.82-0.02,1.64-0.19,2.4-0.52
		c0.75-0.32,1.5-0.79,2.03-1.5c0.55-0.69,0.78-1.69,0.6-2.58l0-0.02C69.53,2.58,69.26,2.41,69,2.46c-0.27,0.05-0.44,0.32-0.39,0.59
		c0,0.01,0.01,0.02,0.01,0.03c0.18,0.64,0.07,1.31-0.32,1.87c-0.38,0.57-0.97,1.01-1.64,1.31c-1.33,0.62-2.9,0.68-4.35,0.28
		c-1.46-0.39-2.81-1.17-4.03-2.1c-0.31-0.23-0.6-0.48-0.9-0.73c-0.3-0.25-0.6-0.52-0.91-0.76c-0.62-0.5-1.26-0.96-1.94-1.39
		c-0.68-0.42-1.4-0.8-2.17-1.08C51.6,0.21,50.78,0.02,49.93,0c-0.84-0.02-1.72,0.13-2.5,0.51c-0.78,0.39-1.38,1.08-1.79,1.82
		c-0.1,0.19-0.19,0.39-0.25,0.61c-0.06,0.2-0.1,0.41-0.12,0.62c-0.04,0.42-0.01,0.85,0.12,1.26c0.12,0.41,0.32,0.79,0.61,1.11
		c0.29,0.32,0.66,0.57,1.09,0.69c0.42,0.12,0.9,0.11,1.3-0.07c0.41-0.17,0.75-0.44,1.02-0.78c0.27-0.34,0.48-0.75,0.5-1.22
		c0.04-0.48-0.22-1-0.61-1.27l-0.01-0.01c-0.15-0.1-0.35-0.07-0.46,0.08c-0.1,0.15-0.07,0.35,0.08,0.46
		C48.92,3.81,48.93,3.81,48.93,3.81z"/>
	<path class="st0" d="M58.64,3.84c-0.48-0.45-0.48-1.22-0.08-1.77c0.2-0.27,0.48-0.49,0.8-0.6c0.32-0.11,0.67-0.12,0.99-0.01
		c0.65,0.21,1.14,0.84,1.3,1.52c0.08,0.35,0.1,0.71,0.04,1.06c-0.02,0.18-0.07,0.35-0.13,0.52l-0.11,0.23
		c-0.04,0.07-0.1,0.14-0.15,0.21c-0.43,0.57-1.11,0.89-1.74,1.15c-0.16,0.06-0.33,0.11-0.49,0.18c-0.16,0.06-0.34,0.08-0.51,0.13
		c-0.17,0.05-0.35,0.06-0.52,0.07c-0.18,0.01-0.35,0.05-0.53,0.03c-1.43,0-2.9-0.46-4.23-1.18c-0.35-0.16-0.66-0.37-0.98-0.58
		c-0.32-0.21-0.65-0.41-0.94-0.66l-0.91-0.71l-0.92-0.75C49.23,2.46,48.91,2.22,48.58,2l-0.51-0.31c-0.17-0.11-0.34-0.21-0.52-0.3
		l-0.53-0.28c-0.18-0.09-0.37-0.16-0.55-0.24c-0.36-0.17-0.75-0.28-1.13-0.41c-0.78-0.21-1.59-0.34-2.4-0.31
		c-0.82,0.02-1.64,0.19-2.4,0.52C39.8,1,39.05,1.46,38.52,2.17c-0.54,0.69-0.78,1.68-0.59,2.57l0,0.02
		c0.05,0.27,0.32,0.44,0.59,0.39c0.27-0.05,0.44-0.32,0.39-0.59c0-0.01-0.01-0.02-0.01-0.03c-0.18-0.63-0.07-1.3,0.32-1.86
		c0.37-0.57,0.97-1,1.63-1.31c1.33-0.62,2.89-0.68,4.34-0.29c1.45,0.4,2.8,1.16,4.02,2.08l1.81,1.47c0.16,0.12,0.3,0.26,0.46,0.37
		l0.48,0.35c0.32,0.23,0.64,0.48,0.99,0.67c0.67,0.43,1.39,0.8,2.15,1.09c0.39,0.13,0.77,0.28,1.18,0.35c0.2,0.04,0.4,0.1,0.61,0.12
		l0.63,0.05c0.84,0.02,1.71-0.11,2.5-0.47c0.79-0.38,1.4-1.05,1.81-1.79c0.05-0.1,0.1-0.19,0.15-0.29l0.12-0.31
		c0.06-0.21,0.11-0.41,0.13-0.62c0.05-0.42,0.03-0.85-0.09-1.25c-0.11-0.41-0.3-0.8-0.58-1.12c-0.27-0.33-0.64-0.59-1.06-0.73
		c-0.41-0.14-0.88-0.14-1.3,0c-0.42,0.14-0.79,0.4-1.06,0.75C57.87,2.1,57.7,2.54,57.69,3c-0.01,0.46,0.16,0.93,0.46,1.28l0.01,0.02
		c0.12,0.14,0.32,0.16,0.46,0.04c0.14-0.12,0.16-0.32,0.04-0.46C58.65,3.86,58.65,3.85,58.64,3.84z"/>
	<circle class="st0" cx="48.82" cy="4.02" r="0.87"/>
	<path class="st0" d="M57.9,3.73c0,0.48,0.39,0.87,0.87,0.87s0.87-0.39,0.87-0.87s-0.39-0.87-0.87-0.87S57.9,3.25,57.9,3.73z"/>
	<g>
		<path class="st0" d="M38.34,3.44H2.07C1.83,3.44,0,3,0,3s1.88-0.44,2.12-0.44h36.22c0.24,0,0.44,0.2,0.44,0.44
			C38.78,3.24,38.58,3.44,38.34,3.44z"/>
	</g>
</g>
</svg>
