<?xml version="1.0" encoding="utf-8"?>
<!-- Generator: Adobe Illustrator 23.0.1, SVG Export Plug-In . SVG Version: 6.00 Build 0)  -->
<svg version="1.1" id="Слой_1" xmlns="http://www.w3.org/2000/svg" xmlns:xlink="http://www.w3.org/1999/xlink" x="0px" y="0px"
	 viewBox="0 0 1280 314.7" style="enable-background:new 0 0 1280 314.7;" xml:space="preserve">
<style type="text/css">
	.st0{fill:#C0973D;}
</style>
<g transform="translate(0.000000,640.000000) scale(0.100000,-0.100000)">
	<path class="st0" d="M6264,6375c-379-84-675-351-775-700c-30-103-37-296-15-405c25-124,71-232,141-335l62-91l-141-100
		c-77-54-146-100-153-102c-8-2-57,28-111,66c-394,280-651,420-893,488c-125,35-327,44-442,20c-238-49-419-178-507-361
		c-49-103-61-157-61-271c0-182,48-294,185-430c77-76,107-99,186-138c146-71,195-81,400-80c159,0,183,3,260,26c47,15,107,36,135,48
		l50,21l-47,29l-46,29l-52-20c-107-41-210-59-334-59c-208,0-338,51-471,184c-130,130-194,289-182,450c25,339,324,488,759,377
		c254-64,579-227,894-447l95-66l-83-56c-109-74-262-173-315-203c-24-13-42-28-40-32c1-5,18-17,38-29l36-20l109,67
		c60,37,157,101,217,141c59,41,110,74,113,74s33-20,67-44c220-156,522-303,743-362c206-55,311-64,452-39c297,52,635,199,919,401
		c34,24,64,44,67,44s54-33,113-74c60-40,157-104,217-141l109-67l36,20c20,12,37,24,38,29c2,4-16,19-40,32c-53,30-206,129-315,203
		l-83,56l95,66c650,454,1212,599,1491,388c173-131,213-384,97-615c-51-102-171-222-272-270c-110-52-179-67-316-67
		c-124,0-227,18-334,59l-52,20l-46-29l-47-29l50-21c28-12,88-33,135-48c77-23,101-26,260-26c204-1,251,9,399,80
		c80,39,109,60,186,138c139,137,185,245,185,432c0,114-16,181-64,279c-87,175-270,303-503,351c-115,24-317,15-442-20
		c-242-68-499-208-893-488c-54-38-103-68-111-66c-7,2-76,48-153,102l-141,100l62,91c103,152,155,319,155,499c0,192-48,351-155,511
		C6984,6248,6569,6441,6264,6375z M6515,6215c278-81,471-235,579-466c61-129,71-182,71-384c0-195-15-278-69-383c-46-89-46-89-97-55
		c-327,222-622,269-925,147c-86-34-189-90-273-147c-43-29-44-29-59-11c-25,33-70,136-88,199c-21,80-31,343-15,427
		c63,334,286,567,642,672C6387,6246,6408,6246,6515,6215z M6535,5035c47-9,121-29,164-45c84-33,281-145,281-160
		c0-18-159-136-233-172c-113-56-170-67-347-67c-176,0-234,11-346,65c-71,35-234,156-234,174c0,5,46,37,102,70
		C6144,5031,6326,5071,6535,5035z M5798,4729c110-100,224-166,349-200c66-19,104-22,253-22s187,3,253,22c126,34,239,100,350,201
		l57,52l118-83c64-45,127-90,139-98c12-9,23-19,23-22c0-13-224-152-353-219c-171-89-313-145-462-183l-120-30l-100,23
		c-144,32-298,91-471,179c-142,73-374,215-374,230c0,5,270,200,279,201C5741,4780,5767,4757,5798,4729z"/>
	<path class="st0" d="M2830,4833c-81-6-227-33-312-57c-462-135-734-523-653-934c46-230,207-411,425-477c117-35,348-30,472,11
		c90,29,134,97,90,137c-39,35-105,11-125-44c-9-28-101-44-242-43c-116,0-137,3-198,27c-155,61-262,178-303,332c-18,66-17,206,1,275
		c42,159,169,309,332,393c257,132,656,194,979,151l41-6l11,84c7,45,14,93,18,104c5,19,1,22-38,28C3185,4835,2971,4844,2830,4833z"/>
	<path class="st0" d="M9615,4831c-173-17-187-21-181-45c4-11,11-59,18-104l11-84l41,6c241,32,564,2,797-74c156-51,263-113,354-205
		c124-124,175-242,175-406c0-220-116-388-325-469c-109-43-415-29-432,19c-20,56-92,81-126,43c-40-44,3-107,91-136
		c124-41,355-46,472-11c351,106,524,485,395,868c-85,250-320,455-622,542c-46,14-122,31-170,40C10010,4833,9730,4842,9615,4831z"/>
	<path class="st0" d="M3500,4743c-5-21-13-68-16-105l-7-66l44-12c90-23,267-84,368-127c242-103,463-225,973-539
		c688-424,880-522,1163-593c413-104,809-40,1260,206c177,96,273,154,655,388c509,313,730,435,971,538c100,42,278,104,367,127
		c38,10,42,14,42,42c0,41-19,151-29,167c-7,10-28,7-106-14c-292-79-627-247-1141-570c-642-405-807-502-1019-598
		c-477-217-779-216-1260,5c-184,84-415,217-835,483c-566,357-825,501-1087,603c-107,42-299,102-325,102
		C3514,4780,3506,4763,3500,4743z"/>
	<path class="st0" d="M41,3723c-17-21-31-41-31-45c0-5,425-8,945-8h944l-18,43l-18,42l-896,3l-895,2L41,3723z"/>
	<path class="st0" d="M2020,3755c0-2,7-23,16-45l16-40h1392h1393l31,39c18,22,32,42,32,45s-648,6-1440,6S2020,3758,2020,3755z"/>
	<path class="st0" d="M7900,3754c0-3,14-24,31-45l31-39h1393h1393l16,40c9,22,16,43,16,45c0,3-648,5-1440,5S7900,3757,7900,3754z"/>
	<path class="st0" d="M10921,3718l-18-43l940-3c517-1,943,0,945,3c3,3-8,22-25,43l-30,37l-897,3l-897,2L10921,3718z"/>
</g>
</svg>
