<svg xmlns="http://www.w3.org/2000/svg" viewBox="0 0 107.44 7.6"><defs><style>.cls-1{fill:#c0973d;}</style></defs><title>Ресурс 1</title><g id="Слой_2" data-name="Слой 2"><g id="Layer_1" data-name="Layer 1"><path class="cls-1" d="M69.1,3.41H107a.44.44,0,0,0,.44-.44.43.43,0,0,0-.44-.43H69.1a.44.44,0,0,0-.44.43A.44.44,0,0,0,69.1,3.41Z"/><path class="cls-1" d="M.44,3.41h37.9A.44.44,0,0,0,38.78,3a.44.44,0,0,0-.44-.43H.44A.44.44,0,0,0,0,3,.44.44,0,0,0,.44,3.41Z"/><path class="cls-1" d="M48.93,3.81a.8.8,0,0,1,.41.72,1.58,1.58,0,0,1-.34.92,2,2,0,0,1-.79.65,1.47,1.47,0,0,1-1,.06,2,2,0,0,1-1.35-1.48,2.52,2.52,0,0,1-.07-1.06,3,3,0,0,1,.11-.52,2.25,2.25,0,0,1,.24-.46,4.1,4.1,0,0,1,1.73-1.17,5.72,5.72,0,0,1,1-.32A6.14,6.14,0,0,1,49.93,1a9,9,0,0,1,4.24,1.15,12.76,12.76,0,0,1,1.94,1.24c.31.22.6.47.9.72l.92.74a14.64,14.64,0,0,0,2,1.31,10.24,10.24,0,0,0,2.21.93,7.83,7.83,0,0,0,2.41.32A6.62,6.62,0,0,0,67,6.94a5,5,0,0,0,2-1.5,3.22,3.22,0,0,0,.59-2.57v0a.5.5,0,1,0-1,.2v0A2.26,2.26,0,0,1,68.3,5a3.85,3.85,0,0,1-1.65,1.31,6.37,6.37,0,0,1-4.35.29,12,12,0,0,1-4-2.1c-.31-.24-.6-.48-.9-.73s-.6-.52-.91-.76a20.59,20.59,0,0,0-1.94-1.38A11.26,11.26,0,0,0,52.36.5,7.31,7.31,0,0,0,49.93,0a5.58,5.58,0,0,0-2.5.51,4.28,4.28,0,0,0-1.78,1.82,3.56,3.56,0,0,0-.25.61,4.26,4.26,0,0,0-.13.62,3.36,3.36,0,0,0,.12,1.26A2.89,2.89,0,0,0,46,5.93a2.37,2.37,0,0,0,1.09.69,1.94,1.94,0,0,0,1.3-.07,2.48,2.48,0,0,0,1-.78,2.26,2.26,0,0,0,.5-1.22,1.5,1.5,0,0,0-.61-1.28h0a.33.33,0,0,0-.45.08.32.32,0,0,0,.08.46Z"/><path class="cls-1" d="M58.64,3.84a1.34,1.34,0,0,1-.08-1.77,1.77,1.77,0,0,1,.8-.6,1.63,1.63,0,0,1,1,0A2.09,2.09,0,0,1,61.66,3a2.69,2.69,0,0,1,0,1.06,2.91,2.91,0,0,1-.12.51l-.11.23a1.7,1.7,0,0,1-.15.22,4.07,4.07,0,0,1-1.74,1.14l-.49.18c-.16.06-.34.08-.5.13a7.13,7.13,0,0,1-1.06.1A9.06,9.06,0,0,1,53.3,5.38a8.13,8.13,0,0,1-1-.58,7.6,7.6,0,0,1-1-.65l-.9-.71-.92-.75c-.32-.23-.64-.47-1-.69l-.51-.31a4.4,4.4,0,0,0-.51-.29L47,1.12,46.48.87a10.8,10.8,0,0,0-1.13-.4A8.14,8.14,0,0,0,42.94.16a6.61,6.61,0,0,0-2.39.51,5,5,0,0,0-2,1.5,3.24,3.24,0,0,0-.59,2.57v0a.49.49,0,0,0,.59.38.49.49,0,0,0,.38-.58v0a2.25,2.25,0,0,1,.32-1.86,3.89,3.89,0,0,1,1.64-1.31,6.46,6.46,0,0,1,4.34-.3,12.16,12.16,0,0,1,4,2.09L51,4.61c.15.12.3.26.46.37l.48.34A10.75,10.75,0,0,0,53,6,11.73,11.73,0,0,0,55.1,7.08a8,8,0,0,0,1.18.35,6,6,0,0,0,.61.12l.63,0A5.71,5.71,0,0,0,60,7.12a4.12,4.12,0,0,0,1.81-1.79c0-.1.1-.19.14-.29l.12-.31a3.15,3.15,0,0,0,.13-.61,3.15,3.15,0,0,0-.08-1.26,2.79,2.79,0,0,0-.58-1.12A2.33,2.33,0,0,0,60.5,1a2.06,2.06,0,0,0-1.3,0,2.33,2.33,0,0,0-1.06.75A2.09,2.09,0,0,0,57.69,3a1.93,1.93,0,0,0,.45,1.28h0a.33.33,0,1,0,.5-.42Z"/><circle class="cls-1" cx="48.82" cy="4.02" r="0.87"/><path class="cls-1" d="M57.9,3.73a.87.87,0,1,0,1.73,0,.87.87,0,0,0-1.73,0Z"/></g></g></svg>