<svg xmlns="http://www.w3.org/2000/svg" viewBox="0 0 107.19 8.78"><defs><style>.cls-1{fill:#c0973d;}</style></defs><title>Ресурс 5</title><g id="Слой_2" data-name="Слой 2"><g id="Layer_1" data-name="Layer 1"><polygon class="cls-1" points="45.3 4.68 0 4.68 1.26 4.03 46.34 4.03 45.3 4.68"/><path class="cls-1" d="M61.57,8.5A15.49,15.49,0,0,1,63.64,6a16.49,16.49,0,0,1,2.55-2.09,15.49,15.49,0,0,1,2.94-1.53,14.45,14.45,0,0,1,3.23-.82,14.93,14.93,0,0,1,3.34-.07A19.08,19.08,0,0,1,79,2.07c.53.17,1.06.33,1.57.54l.77.3.74.3c.49.21,1,.39,1.49.58s1,.37,1.51.53c1,.35,2,.65,3.06.94s2.07.52,3.11.73,2.09.37,3.15.47a27.92,27.92,0,0,0,3.17.15,17.33,17.33,0,0,0,3.13-.34,10,10,0,0,0,2.92-1.07,6.53,6.53,0,0,0,2.26-2.08A7.29,7.29,0,0,0,107,.19h0a.11.11,0,0,1,.13-.1.12.12,0,0,1,.1.13l-.1.82c-.06.26-.11.53-.18.8l-.14.39a2.24,2.24,0,0,1-.14.39,6.59,6.59,0,0,1-.38.75,7.16,7.16,0,0,1-2.32,2.39A10.92,10.92,0,0,1,100.85,7a16.63,16.63,0,0,1-3.28.47A29.21,29.21,0,0,1,91,7c-1.08-.19-2.14-.44-3.2-.71s-2.1-.59-3.13-.94c-.52-.17-1-.36-1.54-.55s-1-.38-1.52-.59l-.76-.31c-.25-.11-.49-.19-.74-.29-.48-.21-1-.35-1.48-.52a17,17,0,0,0-3.06-.64,15.49,15.49,0,0,0-3.12,0,14.36,14.36,0,0,0-5.89,2,17.19,17.19,0,0,0-2.54,1.88c-.4.36-.78.73-1.14,1.12a11.66,11.66,0,0,0-1,1.21h0a.19.19,0,0,1-.31-.21Z"/><path class="cls-1" d="M36.76,8.41a15.49,15.49,0,0,1,2.07-2.55,16.49,16.49,0,0,1,2.55-2.09,15.49,15.49,0,0,1,2.94-1.53,14.45,14.45,0,0,1,3.23-.82,15.55,15.55,0,0,1,3.34-.07A19.08,19.08,0,0,1,54.16,2c.53.17,1.06.33,1.57.54l.77.3.74.3c.49.21,1,.39,1.49.58s1,.37,1.51.53c1,.35,2,.66,3.06.94s2.07.52,3.11.73,2.09.37,3.15.48a30.44,30.44,0,0,0,3.17.14,17.33,17.33,0,0,0,3.13-.34,10.32,10.32,0,0,0,2.92-1.06A6.73,6.73,0,0,0,81,3,7.4,7.4,0,0,0,82.15.11h0a.12.12,0,0,1,.23,0l-.1.82c-.06.26-.11.54-.18.8l-.14.4a3,3,0,0,1-.14.39,6.45,6.45,0,0,1-.38.74,7.07,7.07,0,0,1-2.32,2.39A10.64,10.64,0,0,1,76,7a15.92,15.92,0,0,1-3.28.47,29.21,29.21,0,0,1-6.54-.48c-1.08-.19-2.14-.44-3.2-.71s-2.1-.59-3.13-.94c-.52-.17-1-.36-1.54-.54s-1-.39-1.52-.6l-.76-.31-.74-.29c-.48-.21-1-.35-1.48-.52a17.9,17.9,0,0,0-3.06-.64,15.49,15.49,0,0,0-3.12,0,14.21,14.21,0,0,0-5.89,2,17.26,17.26,0,0,0-2.54,1.89A14.93,14.93,0,0,0,38.1,7.4a11.66,11.66,0,0,0-1,1.21h0a.19.19,0,0,1-.31-.21Z"/></g></g></svg>