<svg xmlns="http://www.w3.org/2000/svg" viewBox="0 0 107.31 10.62"><defs><style>.cls-1{fill:#c0973d;}</style></defs><title>Ресурс 3</title><g id="Слой_2" data-name="Слой 2"><g id="Layer_1" data-name="Layer 1"><path class="cls-1" d="M3.94,7.2a1.47,1.47,0,0,0-2.11.24S.74,6.31,0,6.29c.74,0,1.85-1.12,1.85-1.12A1.47,1.47,0,0,0,4,5.45,1.55,1.55,0,0,1,3.94,7.2Z"/><path class="cls-1" d="M103.36,5.42a1.48,1.48,0,0,0,2.12-.24s1.09,1.12,1.83,1.15c-.74,0-1.85,1.12-1.85,1.12-1.19-1.15-2.11-.28-2.11-.28A1.56,1.56,0,0,1,103.36,5.42Z"/><path class="cls-1" d="M47.18,2.81a1.63,1.63,0,0,1,1.19,0,1.59,1.59,0,0,1,.87.78,2,2,0,0,1-.31,2.22,2.32,2.32,0,0,1-2.17.66A2.51,2.51,0,0,1,45,5.06,3.13,3.13,0,0,1,46.38,1,4,4,0,0,1,48.7.62,3.67,3.67,0,0,1,49.84,1a3.89,3.89,0,0,1,1,.66A4.06,4.06,0,0,1,52,3.67a4.88,4.88,0,0,1,0,2.4A5,5,0,0,1,49,9.6a6.33,6.33,0,0,1-4.8,0,6.48,6.48,0,0,1-3.46-3.39.2.2,0,0,0-.27-.1.2.2,0,0,0-.11.26,6.85,6.85,0,0,0,8.85,3.79A5.57,5.57,0,0,0,52.6,3.52a4.64,4.64,0,0,0-1.37-2.33A4.51,4.51,0,0,0,48.78,0,4.54,4.54,0,0,0,46.12.5a3.69,3.69,0,0,0-1.74,2.08,3.63,3.63,0,0,0,.16,2.69,3,3,0,0,0,2.14,1.61,2.89,2.89,0,0,0,1.37-.09A2.43,2.43,0,0,0,49.2,6a2.32,2.32,0,0,0,.28-2.58,1.88,1.88,0,0,0-1-.86,1.82,1.82,0,0,0-1.32.06.08.08,0,0,0,0,.11A.07.07,0,0,0,47.18,2.81Z"/><path class="cls-1" d="M48.87,10.27a13.38,13.38,0,0,0,3.85-1.54,28.68,28.68,0,0,0,3.4-2.37c1.08-.85,2.13-1.74,3.23-2.54a9.39,9.39,0,0,1,3.54-1.75,3.8,3.8,0,0,1,1.87.1,3.08,3.08,0,0,1,1.51,1.05A3,3,0,0,1,67,4.89a2.38,2.38,0,0,1-.54,1.66,2.46,2.46,0,0,1-1.52.85,1.91,1.91,0,0,1-1.59-.53,1.88,1.88,0,0,1-.46-.75,1.55,1.55,0,0,1,.35-1.65A1.68,1.68,0,0,1,64,4a.12.12,0,0,0,.09-.14.12.12,0,0,0-.12-.1,1.93,1.93,0,0,0-1.69,1.33,2.91,2.91,0,0,0-.09.58,2.7,2.7,0,0,0,.08.58A2.46,2.46,0,0,0,65,8.11,3,3,0,0,0,67,7a3,3,0,0,0,.69-2.17,3.79,3.79,0,0,0-.87-2.06A3.89,3.89,0,0,0,65,1.53a4.56,4.56,0,0,0-2.2-.09,7,7,0,0,0-2,.76A16.15,16.15,0,0,0,59,3.37c-1.1.84-2.13,1.75-3.19,2.62a30.53,30.53,0,0,1-3.28,2.43,13.8,13.8,0,0,1-3.72,1.66.09.09,0,0,0-.06.12A.09.09,0,0,0,48.87,10.27Z"/><path class="cls-1" d="M3.67,6.6H40.56a.3.3,0,1,0,0-.59H3.67a.3.3,0,1,0,0,.59Z"/><path class="cls-1" d="M67.4,6.6h36.89a.3.3,0,1,0,0-.59H67.4a.3.3,0,1,0,0,.59Z"/><path class="cls-1" d="M63,4.71a1,1,0,1,0,1-1A1,1,0,0,0,63,4.71Z"/><path class="cls-1" d="M46.64,3.48a1,1,0,1,0,1-1A1,1,0,0,0,46.64,3.48Z"/></g></g></svg>