<svg id="Слой_1" data-name="Слой 1" xmlns="http://www.w3.org/2000/svg" viewBox="0 0 528.41 253.81"><defs><style>.cls-1,.cls-2{fill:#c0973d;}.cls-2{font-size:112px;font-family:Verdana-BoldItalic, Verdana;font-weight:700;font-style:italic;}</style></defs><title>logo</title><path class="cls-1" d="M149.65,5c14.86,37.68,6.89,75-1.54,114.46-8.12,38-16.5,77.24-2.44,116.54H13.35c-14.86-37.68-6.89-75,1.54-114.46C23,83.53,31.39,44.3,17.33,5H149.65M153,0H10c34.32,80.33-34.32,160.67,0,241H153c-34.32-80.33,34.32-160.67,0-241Z" transform="translate(-0.09)"/><path class="cls-1" d="M49.5,23.77a45.93,45.93,0,0,1,11.82,1.49,83.5,83.5,0,0,0,0,30.48,47.63,47.63,0,0,1-23.64,0,83.5,83.5,0,0,0,0-30.48A45.93,45.93,0,0,1,49.5,23.77m0-5A47.34,47.34,0,0,0,31.85,22a77.84,77.84,0,0,1,0,37.1A47.34,47.34,0,0,0,49.5,62.23a47.34,47.34,0,0,0,17.65-3.18,77.84,77.84,0,0,1,0-37.1A47.34,47.34,0,0,0,49.5,18.77Z" transform="translate(-0.09)"/><path class="cls-1" d="M111.5,23.77a45.93,45.93,0,0,1,11.82,1.49,83.5,83.5,0,0,0,0,30.48,47.63,47.63,0,0,1-23.64,0,83.5,83.5,0,0,0,0-30.48,45.93,45.93,0,0,1,11.82-1.49m0-5A47.34,47.34,0,0,0,93.85,22a77.84,77.84,0,0,1,0,37.1,47.34,47.34,0,0,0,17.65,3.18,47.34,47.34,0,0,0,17.65-3.18,77.84,77.84,0,0,1,0-37.1,47.34,47.34,0,0,0-17.65-3.18Z" transform="translate(-0.09)"/><path class="cls-1" d="M49.5,78.77a45.93,45.93,0,0,1,11.82,1.49,83.5,83.5,0,0,0,0,30.48,47.63,47.63,0,0,1-23.64,0,83.5,83.5,0,0,0,0-30.48A45.93,45.93,0,0,1,49.5,78.77m0-5A47.34,47.34,0,0,0,31.85,77a77.84,77.84,0,0,1,0,37.1,47.34,47.34,0,0,0,17.65,3.18,47.34,47.34,0,0,0,17.65-3.18,77.84,77.84,0,0,1,0-37.1A47.34,47.34,0,0,0,49.5,73.77Z" transform="translate(-0.09)"/><path class="cls-1" d="M111.5,78.77a45.93,45.93,0,0,1,11.82,1.49,83.5,83.5,0,0,0,0,30.48,47.63,47.63,0,0,1-23.64,0,83.5,83.5,0,0,0,0-30.48,45.93,45.93,0,0,1,11.82-1.49m0-5A47.34,47.34,0,0,0,93.85,77a77.84,77.84,0,0,1,0,37.1,47.34,47.34,0,0,0,17.65,3.18,47.34,47.34,0,0,0,17.65-3.18,77.84,77.84,0,0,1,0-37.1,47.34,47.34,0,0,0-17.65-3.18Z" transform="translate(-0.09)"/><path class="cls-1" d="M49.5,136.77a45.93,45.93,0,0,1,11.82,1.49,83.5,83.5,0,0,0,0,30.48,47.63,47.63,0,0,1-23.64,0,83.5,83.5,0,0,0,0-30.48,45.93,45.93,0,0,1,11.82-1.49m0-5A47.34,47.34,0,0,0,31.85,135a77.84,77.84,0,0,1,0,37.1,47.34,47.34,0,0,0,17.65,3.18,47.34,47.34,0,0,0,17.65-3.18,77.84,77.84,0,0,1,0-37.1,47.34,47.34,0,0,0-17.65-3.18Z" transform="translate(-0.09)"/><path class="cls-1" d="M111.5,136.77a45.93,45.93,0,0,1,11.82,1.49,83.5,83.5,0,0,0,0,30.48,47.63,47.63,0,0,1-23.64,0,83.5,83.5,0,0,0,0-30.48,45.93,45.93,0,0,1,11.82-1.49m0-5A47.34,47.34,0,0,0,93.85,135a77.84,77.84,0,0,1,0,37.1,47.34,47.34,0,0,0,17.65,3.18,47.34,47.34,0,0,0,17.65-3.18,77.84,77.84,0,0,1,0-37.1,47.34,47.34,0,0,0-17.65-3.18Z" transform="translate(-0.09)"/><path class="cls-1" d="M96,192v44H65V192H96m5-5H60v54h41V187Z" transform="translate(-0.09)"/><text class="cls-2" transform="translate(172.44 190.84)">Hotel</text><line class="cls-1" x1="528.41" y1="203" x2="172.91" y2="203"/><path class="cls-1" d="M528.5,203.4c-29.63,2.83-59.25,4.31-88.88,5.31l-11.1.39-11.11.26-22.22.48c-14.82.19-29.63.25-44.44.36-14.81-.14-29.63-.16-44.44-.38l-22.22-.48c-3.7-.09-7.4-.13-11.11-.26l-11.11-.39c-29.62-1-59.25-2.48-88.87-5.29v-.8l177.75-.4,177.75.4Z" transform="translate(-0.09)"/></svg>