<?xml version="1.0" encoding="UTF-8"?>
<!DOCTYPE svg PUBLIC "-//W3C//DTD SVG 1.1//EN" "http://www.w3.org/Graphics/SVG/1.1/DTD/svg11.dtd">
<!-- Creator: CorelDRAW -->
<svg xmlns="http://www.w3.org/2000/svg" xml:space="preserve" width="180mm" height="120mm" style="shape-rendering:geometricPrecision; text-rendering:geometricPrecision; image-rendering:optimizeQuality; fill-rule:evenodd; clip-rule:evenodd"
viewBox="0 0 180 120"
 xmlns:xlink="http://www.w3.org/1999/xlink">
 <defs>
  <style type="text/css">
   <![CDATA[
    .str0 {stroke:white;stroke-width:0.3528}
    .fil3 {fill:none;fill-rule:nonzero}
    .fil0 {fill:#32518D}
    .fil1 {fill:#32518D;fill-rule:nonzero}
    .fil2 {fill:#A69066;fill-rule:nonzero}
   ]]>
  </style>
 </defs>
 <g id="Layer_x0020_1">
  <metadata id="CorelCorpID_0Corel-Layer"/>
  <g id="_202602696">
   <polygon id="_202604448" class="fil0" points="52.7124,37.3741 63.4345,70.5704 64.6309,70.5729 53.8713,36.7208 "/>
   <path id="_202604304" class="fil1" d="M71.8841 62.2772c-0.0208,-0.08 -0.0464,-0.1424 -0.0736,-0.1872 -0.0288,-0.0449 -0.0688,-0.0753 -0.1185,-0.0945 -0.0496,-0.0176 -0.1168,-0.0272 -0.2016,-0.0256l-4.0723 0 0 1.9209 2.6988 0c0.0849,0.0016 0.1521,-0.0064 0.2017,-0.0224 0.0496,-0.0161 0.0897,-0.0449 0.1185,-0.0897 0.0272,-0.0448 0.0528,-0.1104 0.0736,-0.1953l0.1633 0 0 1.4023 -0.1633 0c-0.0208,-0.0769 -0.0464,-0.1361 -0.0736,-0.1793 -0.0288,-0.0448 -0.0689,-0.0753 -0.1185,-0.0929 -0.0496,-0.0176 -0.1168,-0.0256 -0.2017,-0.0256l-2.6988 0 0 2.3051c-0.0016,0.0848 0.0064,0.152 0.024,0.2 0.016,0.0481 0.0465,0.0849 0.0897,0.1121 0.0432,0.0272 0.104,0.0512 0.1841,0.072l0 0.1633 -1.604 0 0 -0.1633c0.0801,-0.0208 0.1409,-0.0448 0.1841,-0.072 0.0432,-0.0272 0.0737,-0.064 0.0897,-0.1121 0.0176,-0.048 0.0256,-0.1152 0.024,-0.2l0 -5.3016c0.0016,-0.0849 -0.0064,-0.1537 -0.024,-0.2033 -0.016,-0.0496 -0.0465,-0.088 -0.0897,-0.1169 -0.0432,-0.0272 -0.104,-0.0528 -0.1841,-0.0736l0 -0.1537 5.3785 0c0.0848,0 0.152,-0.008 0.2016,-0.0272 0.0497,-0.0176 0.0897,-0.0496 0.1185,-0.0944 0.0272,-0.0448 0.0528,-0.1057 0.0736,-0.1857l0.1537 0 0 1.4406 -0.1537 0z"/>
   <path id="_2026043041" class="fil1" d="M78.0213 67.5404l0 -0.1537c0.0896,-0.0144 0.1488,-0.032 0.1793,-0.056 0.0304,-0.0224 0.0448,-0.056 0.0416,-0.0976 0.0016,-0.0208 -0.0032,-0.0417 -0.0096,-0.0609 -0.008,-0.0192 -0.024,-0.0464 -0.0465,-0.0832 -0.024,-0.0368 -0.0592,-0.0912 -0.1072,-0.1633 -0.0384,-0.0576 -0.0752,-0.1152 -0.1105,-0.1729 -0.0352,-0.0576 -0.072,-0.1152 -0.1104,-0.1728 -0.0192,-0.0272 -0.056,-0.0865 -0.1137,-0.1745 -0.056,-0.0896 -0.1248,-0.1969 -0.2032,-0.3234 -0.0801,-0.1248 -0.1633,-0.2577 -0.2498,-0.3953 -0.0864,-0.1377 -0.1696,-0.2706 -0.2497,-0.3954 -0.0784,-0.1265 -0.1472,-0.2337 -0.2033,-0.3234 -0.0576,-0.088 -0.0944,-0.1472 -0.1136,-0.1744l-2.161 0 0 2.1994c-0.0016,0.0848 0.0064,0.152 0.0224,0.2016 0.016,0.0497 0.0449,0.0897 0.0897,0.1169 0.0448,0.0288 0.1104,0.0544 0.1953,0.0752l0 0.1537 -1.6136 0 0 -0.1537c0.0849,-0.0208 0.1505,-0.0464 0.1953,-0.0752 0.0448,-0.0272 0.0737,-0.0672 0.0897,-0.1169 0.016,-0.0496 0.024,-0.1168 0.0224,-0.2016l0 -5.3016c0.0016,-0.0849 -0.0064,-0.1521 -0.0224,-0.2001 -0.016,-0.048 -0.0449,-0.0848 -0.0897,-0.1121 -0.0448,-0.0272 -0.1104,-0.0512 -0.1953,-0.072l0 -0.1633 3.6305 0c0.1104,0 0.2145,0.0016 0.3121,0.0064 0.0976,0.0032 0.1921,0.008 0.2833,0.0128 0.2866,0.0129 0.5331,0.0449 0.7428,0.0929 0.2113,0.0496 0.3985,0.1248 0.5634,0.2241 0.2561,0.1553 0.4546,0.3601 0.5939,0.6147 0.1408,0.2545 0.2113,0.5458 0.2129,0.874 -0.0016,0.3329 -0.0721,0.6258 -0.2113,0.8755 -0.1393,0.2498 -0.341,0.453 -0.6051,0.6083 -0.2641,0.1553 -0.5842,0.2593 -0.9604,0.3122 0.2113,0.3265 0.421,0.6514 0.6291,0.9748 0.2081,0.3233 0.4178,0.6483 0.629,0.9748 0.0417,0.0705 0.0833,0.1377 0.1233,0.2017 0.0384,0.064 0.0848,0.1313 0.1361,0.2017 0.0576,0.0816 0.1216,0.1457 0.192,0.1921 0.0721,0.0464 0.1553,0.072 0.2498,0.0768l0 0.1537 -1.7576 0zm0.5474 -4.5716c0,-0.1937 -0.04,-0.3634 -0.1184,-0.5107 -0.0785,-0.1472 -0.1921,-0.2609 -0.3426,-0.3441 -0.088,-0.0481 -0.1857,-0.0865 -0.2961,-0.1137 -0.1105,-0.0288 -0.2433,-0.048 -0.4002,-0.0608 -0.1553,-0.0128 -0.3458,-0.0176 -0.5715,-0.0176l-2.2762 0 0 2.0937 2.3339 0c0.2193,0 0.4033,-0.0048 0.5538,-0.016 0.1505,-0.0112 0.2785,-0.0304 0.3842,-0.0576 0.1072,-0.0288 0.2033,-0.0672 0.2913,-0.1185 0.1489,-0.0832 0.2593,-0.1985 0.333,-0.3441 0.0736,-0.1473 0.1088,-0.317 0.1088,-0.5106z"/>
   <path id="_20260430412" class="fil1" d="M85.8008 67.5404l0 -0.1633c0.1729,-0.0192 0.2593,-0.0864 0.2593,-0.2017 0,-0.024 -0.008,-0.0624 -0.0224,-0.1136 -0.016,-0.0496 -0.04,-0.1121 -0.0736,-0.1841l-0.4514 -1.0277 -3.3135 0 -0.4802 1.0853c-0.0224,0.0464 -0.0385,0.0849 -0.0497,0.1105 -0.0112,0.0272 -0.0192,0.0512 -0.0224,0.0688 -0.0032,0.0192 -0.0048,0.04 -0.0048,0.0608 -0.0016,0.0577 0.016,0.1009 0.0561,0.1329 0.04,0.032 0.1136,0.0544 0.2225,0.0688l0 0.1633 -1.6136 0 0 -0.1633c0.0913,-0.024 0.1649,-0.0576 0.2241,-0.1024 0.0577,-0.0432 0.1105,-0.1105 0.1601,-0.2001 0.0496,-0.088 0.1073,-0.2113 0.1729,-0.3698l2.1802 -4.9366c0.0336,-0.08 0.056,-0.1408 0.0688,-0.1825 0.0128,-0.0416 0.0176,-0.0736 0.0176,-0.096 0.0016,-0.056 -0.0128,-0.0977 -0.0448,-0.1249 -0.0304,-0.0272 -0.0865,-0.0496 -0.1665,-0.0672l0 -0.1537 1.9593 0 0 0.1537c-0.0721,0.0144 -0.1265,0.0384 -0.1649,0.072 -0.0368,0.0337 -0.056,0.0769 -0.056,0.1297 0,0.0144 0.0016,0.032 0.008,0.0512 0.0048,0.0176 0.0144,0.0432 0.0288,0.0769 0.0144,0.0336 0.0336,0.0816 0.0592,0.1408l2.1802 4.9366c0.064,0.1393 0.1152,0.2513 0.1569,0.333 0.04,0.0816 0.0784,0.144 0.1152,0.1873 0.0352,0.0416 0.0769,0.0736 0.1249,0.0944 0.048,0.0208 0.1104,0.04 0.1889,0.0576l0 0.1633 -1.7192 0zm-1.9497 -5.4841l-1.3446 3.0734 2.6892 0 -1.3446 -3.0734z"/>
   <path id="_202604304123" class="fil1" d="M93.4554 67.5404l0 -0.1633c0.0721,-0.0192 0.1281,-0.0432 0.1649,-0.0736 0.0368,-0.0288 0.056,-0.0656 0.056,-0.1089 0.0016,-0.0336 -0.0032,-0.064 -0.0112,-0.0912 -0.0096,-0.0272 -0.0272,-0.0592 -0.056,-0.096 -0.0304,-0.0369 -0.0736,-0.0865 -0.1344,-0.1489l-3.9666 -4.562 0 4.6965c-0.0016,0.0848 0.0048,0.152 0.0192,0.2 0.0144,0.0481 0.0432,0.0849 0.0864,0.1121 0.0432,0.0272 0.1073,0.0512 0.1921,0.072l0 0.1633 -1.4887 0 0 -0.1633c0.0801,-0.0208 0.1409,-0.0448 0.1841,-0.072 0.0432,-0.0272 0.0737,-0.064 0.0897,-0.1121 0.0176,-0.048 0.0256,-0.1152 0.024,-0.2l0 -5.3016c0.0016,-0.0849 -0.0064,-0.1521 -0.024,-0.2033 -0.016,-0.0496 -0.0465,-0.088 -0.0897,-0.1169 -0.0432,-0.0272 -0.104,-0.0528 -0.1841,-0.0736l0 -0.1537 2.0746 0 0 0.1537c-0.0769,0.024 -0.1345,0.0528 -0.1729,0.088 -0.0384,0.0337 -0.0576,0.0753 -0.0576,0.1233 0,0.024 0.0048,0.0496 0.016,0.0752 0.0128,0.0272 0.0352,0.0593 0.0672,0.0977 0.032,0.04 0.0768,0.0912 0.1377,0.1536l3.5632 4.1203 0 -4.2643c0.0016,-0.0849 -0.0064,-0.1521 -0.0224,-0.2033 -0.0145,-0.0496 -0.0449,-0.088 -0.0897,-0.1169 -0.0448,-0.0272 -0.1088,-0.0528 -0.1953,-0.0736l0 -0.1537 1.4983 0 0 0.1537c-0.0784,0.0208 -0.1409,0.0464 -0.1841,0.0736 -0.0432,0.0289 -0.0736,0.0673 -0.0896,0.1169 -0.016,0.0512 -0.024,0.1184 -0.024,0.2033l0 5.3016c0,0.0848 0.008,0.152 0.024,0.2 0.016,0.0481 0.0464,0.0849 0.0896,0.1121 0.0432,0.0272 0.1057,0.0512 0.1841,0.072l0 0.1633 -1.6808 0z"/>
   <path id="_2026043041234" class="fil1" d="M103.636 66.6952c-0.0241,0.0144 -0.0465,0.0288 -0.0673,0.0432 -0.0208,0.0144 -0.0432,0.0289 -0.0672,0.0433 -0.0432,-0.0433 -0.0832,-0.0769 -0.1217,-0.0993 -0.0368,-0.024 -0.0704,-0.0352 -0.0992,-0.0352 -0.0224,-0.0016 -0.0496,0.0064 -0.0848,0.0224 -0.0337,0.0176 -0.0849,0.0512 -0.1553,0.1025 -0.2321,0.1664 -0.4658,0.3089 -0.7011,0.4257 -0.2369,0.1185 -0.485,0.2113 -0.746,0.2818 -0.2593,0.0688 -0.5426,0.1152 -0.8483,0.1376 -0.1105,0.0144 -0.2177,0.024 -0.3218,0.0288 -0.1056,0.0048 -0.2129,0.0048 -0.3217,0 -0.5523,-0.0144 -1.0501,-0.104 -1.4967,-0.2689 -0.4466,-0.1648 -0.8292,-0.3954 -1.1477,-0.6883 -0.3202,-0.2929 -0.5651,-0.6371 -0.7363,-1.0356 -0.1713,-0.397 -0.2578,-0.834 -0.2594,-1.311 0.0016,-0.4899 0.0929,-0.9365 0.2738,-1.3398 0.1792,-0.405 0.437,-0.754 0.7731,-1.0485 0.3362,-0.2945 0.7379,-0.5218 1.2054,-0.6819 0.469,-0.1601 0.9924,-0.2417 1.5703,-0.2433 0.3537,0 0.6835,0.0288 0.9908,0.0816 0.3057,0.0544 0.5955,0.1329 0.8676,0.2321 0.2737,0.1009 0.5378,0.2193 0.7923,0.3586 0.0385,0.0144 0.0689,0.0256 0.0929,0.0352 0.0224,0.008 0.0368,0.0128 0.0416,0.0128 0.0208,0 0.0416,-0.0048 0.0608,-0.016 0.0176,-0.0096 0.04,-0.0288 0.0673,-0.056 0.0272,-0.0256 0.0656,-0.0625 0.112,-0.1105 0.024,0.0128 0.048,0.024 0.0704,0.0336 0.0241,0.008 0.0449,0.0192 0.0641,0.0337 -0.1297,0.2305 -0.2577,0.4626 -0.3842,0.6947 -0.1265,0.2321 -0.2545,0.461 -0.3842,0.6883 -0.0336,-0.0144 -0.0608,-0.0272 -0.0816,-0.0368 -0.0208,-0.0112 -0.0384,-0.0209 -0.0528,-0.0305 0.0144,-0.0336 0.024,-0.0672 0.0304,-0.0992 0.0048,-0.0336 0.008,-0.064 0.008,-0.0928 0.0016,-0.0705 -0.0448,-0.1457 -0.1377,-0.2241 -0.0944,-0.0769 -0.2433,-0.1665 -0.4482,-0.2658 -0.2545,-0.12 -0.5234,-0.2113 -0.8067,-0.2721 -0.2834,-0.0624 -0.5811,-0.0928 -0.8932,-0.0928 -0.4162,0.0016 -0.7956,0.0608 -1.1365,0.1761 -0.341,0.1168 -0.6339,0.2817 -0.8788,0.4962 -0.2466,0.2145 -0.4354,0.4674 -0.5683,0.7619 -0.1329,0.2946 -0.2001,0.6195 -0.2017,0.9765 0.0016,0.3569 0.0688,0.6851 0.2017,0.9828 0.1329,0.2977 0.3217,0.5554 0.5651,0.7747 0.2433,0.2193 0.533,0.389 0.8659,0.5091 0.333,0.12 0.7012,0.1809 1.1045,0.1825 0.3858,0.0016 0.7492,-0.0513 1.0869,-0.1585 0.3394,-0.1073 0.6675,-0.2753 0.9877,-0.5042 0.0528,-0.0433 0.096,-0.0801 0.1312,-0.1105 0.0336,-0.0304 0.0609,-0.0576 0.0801,-0.0816 0.0336,-0.0288 0.0592,-0.0545 0.0784,-0.0785 0.0176,-0.024 0.0272,-0.0464 0.0272,-0.0656 0.0048,-0.0048 0.008,-0.0128 0.008,-0.0224 0.0016,-0.0096 0.0016,-0.0208 0.0016,-0.0352 0,-0.0048 0,-0.0112 -0.0016,-0.0192 0,-0.008 -0.0032,-0.0144 -0.008,-0.0192 -0.0096,-0.0385 -0.0288,-0.0865 -0.0576,-0.1441 0.0192,-0.0144 0.04,-0.0288 0.0624,-0.0432 0.0224,-0.0144 0.0432,-0.0288 0.0624,-0.0432 0.1569,0.2065 0.3122,0.4145 0.4658,0.6258 0.1521,0.2097 0.3074,0.421 0.4659,0.6323z"/>
   <path id="_20260430412345" class="fil1" d="M112.203 64.3422c0,0.3121 -0.0417,0.613 -0.1233,0.9028 -0.0832,0.2897 -0.2049,0.5618 -0.3682,0.8163 -0.1616,0.2546 -0.3633,0.4851 -0.6034,0.6915 -0.6819,0.5955 -1.5847,0.8932 -2.7084,0.8932 -0.5619,0 -1.0693,-0.0752 -1.5207,-0.2241 -0.453,-0.1488 -0.8516,-0.3713 -1.1974,-0.6691 -0.2337,-0.2064 -0.4322,-0.4369 -0.5954,-0.6915 -0.1633,-0.2545 -0.2866,-0.5266 -0.3714,-0.8163 -0.0848,-0.2898 -0.1281,-0.5907 -0.1281,-0.9028 0.0016,-0.3186 0.0449,-0.6243 0.1297,-0.9172 0.0864,-0.293 0.2113,-0.5667 0.3746,-0.8196 0.1616,-0.2529 0.3601,-0.477 0.5906,-0.6739 0.2385,-0.2049 0.4979,-0.3746 0.7764,-0.5074 0.2785,-0.1329 0.581,-0.2321 0.9092,-0.2978 0.3281,-0.0656 0.6851,-0.0976 1.0709,-0.0976 0.557,0.0016 1.0644,0.0848 1.5239,0.2481 0.4594,0.1617 0.8563,0.3922 1.1909,0.6883 0.3345,0.2961 0.5922,0.6451 0.7747,1.0485 0.1809,0.4034 0.2738,0.8468 0.2754,1.3286zm-1.0373 0.0096c0,-0.3314 -0.0544,-0.6387 -0.1649,-0.9204 -0.1104,-0.2802 -0.2769,-0.5347 -0.4978,-0.7604 -0.1777,-0.1793 -0.3714,-0.3265 -0.5811,-0.4434 -0.2097,-0.1168 -0.4418,-0.2033 -0.6979,-0.2593 -0.2561,-0.0576 -0.5442,-0.0848 -0.8628,-0.0848 -0.4113,0.0016 -0.7859,0.0608 -1.1205,0.1792 -0.3345,0.1169 -0.6226,0.285 -0.8644,0.5043 -0.2401,0.2177 -0.4257,0.477 -0.5554,0.7795 -0.1297,0.301 -0.1953,0.6371 -0.1969,1.0053 0.0016,0.3665 0.0672,0.6995 0.1985,0.9988 0.1313,0.2994 0.3185,0.5571 0.5618,0.7732 0.245,0.2161 0.5363,0.3825 0.8772,0.4994 0.3394,0.1168 0.7188,0.1761 1.1382,0.1777 0.4193,-0.0016 0.7987,-0.0609 1.1381,-0.1777 0.3377,-0.1169 0.629,-0.2833 0.8724,-0.4994 0.2417,-0.2161 0.4289,-0.4738 0.5586,-0.7732 0.1297,-0.2993 0.1953,-0.6323 0.1969,-0.9988z"/>
   <path id="_202604304123456" class="fil1" d="M29.8942 77.452c-0.0241,0.0144 -0.0465,0.0288 -0.0673,0.0432 -0.0208,0.0144 -0.0432,0.0289 -0.0672,0.0433 -0.0432,-0.0433 -0.0832,-0.0769 -0.1217,-0.0993 -0.0368,-0.024 -0.0704,-0.0352 -0.0992,-0.0352 -0.0224,-0.0016 -0.0496,0.0064 -0.0848,0.0224 -0.0337,0.0176 -0.0849,0.0512 -0.1553,0.1025 -0.2321,0.1664 -0.4658,0.3089 -0.7011,0.4257 -0.2369,0.1185 -0.485,0.2113 -0.746,0.2818 -0.2593,0.0688 -0.5426,0.1152 -0.8483,0.1376 -0.1105,0.0144 -0.2177,0.024 -0.3218,0.0288 -0.1056,0.0048 -0.2129,0.0048 -0.3217,0 -0.5523,-0.0144 -1.0501,-0.104 -1.4967,-0.2689 -0.4466,-0.1648 -0.8292,-0.3954 -1.1477,-0.6883 -0.3202,-0.2929 -0.5651,-0.6371 -0.7363,-1.0356 -0.1713,-0.397 -0.2578,-0.834 -0.2594,-1.311 0.0016,-0.4899 0.0929,-0.9365 0.2738,-1.3398 0.1792,-0.405 0.437,-0.754 0.7731,-1.0485 0.3362,-0.2945 0.7379,-0.5218 1.2054,-0.6819 0.469,-0.1601 0.9924,-0.2417 1.5703,-0.2433 0.3537,0 0.6835,0.0288 0.9908,0.0816 0.3057,0.0544 0.5955,0.1329 0.8676,0.2321 0.2737,0.1009 0.5378,0.2193 0.7923,0.3586 0.0385,0.0144 0.0689,0.0256 0.0929,0.0352 0.0224,0.008 0.0368,0.0128 0.0416,0.0128 0.0208,0 0.0416,-0.0048 0.0608,-0.016 0.0176,-0.0096 0.04,-0.0288 0.0673,-0.056 0.0272,-0.0256 0.0656,-0.0625 0.112,-0.1105 0.024,0.0128 0.048,0.024 0.0704,0.0336 0.0241,0.008 0.0449,0.0192 0.0641,0.0337 -0.1297,0.2305 -0.2577,0.4626 -0.3842,0.6947 -0.1265,0.2321 -0.2545,0.461 -0.3842,0.6883 -0.0336,-0.0144 -0.0608,-0.0272 -0.0816,-0.0368 -0.0208,-0.0112 -0.0384,-0.0209 -0.0528,-0.0305 0.0144,-0.0336 0.024,-0.0672 0.0304,-0.0992 0.0048,-0.0336 0.008,-0.064 0.008,-0.0928 0.0016,-0.0705 -0.0448,-0.1457 -0.1377,-0.2241 -0.0944,-0.0769 -0.2433,-0.1665 -0.4482,-0.2658 -0.2545,-0.12 -0.5234,-0.2113 -0.8067,-0.2721 -0.2834,-0.0624 -0.5811,-0.0928 -0.8932,-0.0928 -0.4162,0.0016 -0.7956,0.0608 -1.1365,0.1761 -0.341,0.1168 -0.6339,0.2817 -0.8788,0.4962 -0.2466,0.2145 -0.4354,0.4674 -0.5683,0.7619 -0.1329,0.2946 -0.2001,0.6195 -0.2017,0.9765 0.0016,0.3569 0.0688,0.6851 0.2017,0.9828 0.1329,0.2977 0.3217,0.5554 0.5651,0.7747 0.2433,0.2193 0.533,0.389 0.8659,0.5091 0.333,0.12 0.7012,0.1809 1.1045,0.1825 0.3858,0.0016 0.7492,-0.0513 1.0869,-0.1585 0.3394,-0.1073 0.6675,-0.2753 0.9877,-0.5042 0.0528,-0.0433 0.096,-0.0801 0.1312,-0.1105 0.0336,-0.0304 0.0609,-0.0576 0.0801,-0.0816 0.0336,-0.0288 0.0592,-0.0545 0.0784,-0.0785 0.0176,-0.024 0.0272,-0.0464 0.0272,-0.0656 0.0048,-0.0048 0.008,-0.0128 0.008,-0.0224 0.0016,-0.0096 0.0016,-0.0208 0.0016,-0.0352 0,-0.0048 0,-0.0112 -0.0016,-0.0192 0,-0.008 -0.0032,-0.0144 -0.008,-0.0192 -0.0096,-0.0385 -0.0288,-0.0865 -0.0576,-0.1441 0.0192,-0.0144 0.04,-0.0288 0.0624,-0.0432 0.0224,-0.0144 0.0432,-0.0288 0.0624,-0.0432 0.1569,0.2065 0.3122,0.4145 0.4658,0.6258 0.1521,0.2097 0.3074,0.421 0.4659,0.6323z"/>
   <path id="_2026043041234567" class="fil1" d="M38.4612 75.099c0,0.3121 -0.0417,0.613 -0.1233,0.9028 -0.0832,0.2897 -0.2049,0.5618 -0.3682,0.8163 -0.1616,0.2546 -0.3633,0.4851 -0.6034,0.6915 -0.6819,0.5955 -1.5847,0.8932 -2.7084,0.8932 -0.5619,0 -1.0693,-0.0752 -1.5207,-0.2241 -0.453,-0.1488 -0.8516,-0.3713 -1.1974,-0.6691 -0.2337,-0.2064 -0.4322,-0.4369 -0.5954,-0.6915 -0.1633,-0.2545 -0.2866,-0.5266 -0.3714,-0.8163 -0.0848,-0.2898 -0.1281,-0.5907 -0.1281,-0.9028 0.0016,-0.3186 0.0449,-0.6243 0.1297,-0.9172 0.0864,-0.293 0.2113,-0.5667 0.3746,-0.8196 0.1616,-0.2529 0.3601,-0.477 0.5906,-0.6739 0.2385,-0.2049 0.4979,-0.3746 0.7764,-0.5074 0.2785,-0.1329 0.581,-0.2321 0.9092,-0.2978 0.3281,-0.0656 0.6851,-0.0976 1.0709,-0.0976 0.557,0.0016 1.0644,0.0848 1.5239,0.2481 0.4594,0.1617 0.8563,0.3922 1.1909,0.6883 0.3345,0.2961 0.5922,0.6451 0.7747,1.0485 0.1809,0.4034 0.2738,0.8468 0.2754,1.3286zm-1.0373 0.0096c0,-0.3314 -0.0544,-0.6387 -0.1649,-0.9204 -0.1104,-0.2802 -0.2769,-0.5347 -0.4978,-0.7604 -0.1777,-0.1793 -0.3714,-0.3265 -0.5811,-0.4434 -0.2097,-0.1168 -0.4418,-0.2033 -0.6979,-0.2593 -0.2561,-0.0576 -0.5442,-0.0848 -0.8628,-0.0848 -0.4113,0.0016 -0.7859,0.0608 -1.1205,0.1792 -0.3345,0.1169 -0.6226,0.285 -0.8644,0.5043 -0.2401,0.2177 -0.4257,0.477 -0.5554,0.7795 -0.1297,0.301 -0.1953,0.6371 -0.1969,1.0053 0.0016,0.3665 0.0672,0.6995 0.1985,0.9988 0.1313,0.2994 0.3185,0.5571 0.5618,0.7732 0.245,0.2161 0.5363,0.3825 0.8772,0.4994 0.3394,0.1168 0.7188,0.1761 1.1382,0.1777 0.4193,-0.0016 0.7987,-0.0609 1.1381,-0.1777 0.3377,-0.1169 0.629,-0.2833 0.8724,-0.4994 0.2417,-0.2161 0.4289,-0.4738 0.5586,-0.7732 0.1297,-0.2993 0.1953,-0.6323 0.1969,-0.9988z"/>
   <path id="_20260430412345678" class="fil1" d="M45.7796 78.2972l0 -0.1633c0.0801,-0.0208 0.1409,-0.0448 0.1841,-0.072 0.0432,-0.0272 0.0736,-0.064 0.0896,-0.1121 0.0177,-0.048 0.0257,-0.1152 0.0241,-0.2l0 -4.6869 -2.574 5.1959 -2.5451 -5.1959 0 4.6869c-0.0016,0.0848 0.0064,0.152 0.024,0.2 0.016,0.0481 0.0464,0.0849 0.0896,0.1121 0.0432,0.0272 0.1041,0.0512 0.1841,0.072l0 0.1633 -1.4695 0 0 -0.1633c0.0801,-0.0208 0.1409,-0.0448 0.1841,-0.072 0.0432,-0.0272 0.0737,-0.064 0.0897,-0.1121 0.0176,-0.048 0.0256,-0.1152 0.024,-0.2l0 -5.3016c0.0016,-0.0849 -0.0064,-0.1521 -0.024,-0.2033 -0.016,-0.0496 -0.0465,-0.088 -0.0897,-0.1169 -0.0432,-0.0272 -0.104,-0.0528 -0.1841,-0.0736l0 -0.1537 2.0266 0 0 0.1537c-0.0897,0.032 -0.1521,0.064 -0.1889,0.0928 -0.0352,0.0305 -0.0529,0.0673 -0.0513,0.1089 0,0.0144 0.0016,0.032 0.0064,0.0512 0.0064,0.0192 0.0193,0.0496 0.0385,0.0929 0.0192,0.0432 0.048,0.1072 0.0896,0.192l1.8536 3.7553 1.8729 -3.7841c0.0336,-0.072 0.0608,-0.1328 0.0784,-0.1824 0.0176,-0.0497 0.0272,-0.0913 0.0272,-0.1249 0.0016,-0.0512 -0.016,-0.0896 -0.0512,-0.1153 -0.0352,-0.0272 -0.0992,-0.056 -0.1889,-0.0864l0 -0.1537 2.0553 0 0 0.1537c-0.0784,0.0208 -0.1408,0.0464 -0.1841,0.0736 -0.0432,0.0289 -0.0736,0.0673 -0.0896,0.1169 -0.016,0.0512 -0.024,0.1184 -0.024,0.2033l0 5.3016c0,0.0848 0.008,0.152 0.024,0.2 0.016,0.0481 0.0464,0.0849 0.0896,0.1121 0.0433,0.0272 0.1057,0.0512 0.1841,0.072l0 0.1633 -1.5751 0z"/>
   <path id="_202604304123456789" class="fil1" d="M54.971 73.7159c0,0.2145 -0.0305,0.4162 -0.0897,0.6035 -0.0608,0.1873 -0.1472,0.3538 -0.2609,0.5026 -0.1152,0.1489 -0.2545,0.2722 -0.4178,0.373 -0.1344,0.0864 -0.2833,0.1553 -0.4434,0.2065 -0.1585,0.0528 -0.3457,0.0912 -0.557,0.1137 -0.2129,0.024 -0.4642,0.0352 -0.7572,0.0352l-2.2474 0 0 2.257c-0.0016,0.0944 0.0208,0.1649 0.0673,0.2145 0.0464,0.0496 0.1264,0.0896 0.2401,0.1216l0 0.1537 -1.6136 0 0 -0.1537c0.1137,-0.032 0.1937,-0.072 0.2401,-0.1216 0.0465,-0.0496 0.0689,-0.1201 0.0673,-0.2145l0 -5.4072c0.0016,-0.0945 -0.0208,-0.1649 -0.0673,-0.2145 -0.0464,-0.0497 -0.1264,-0.0897 -0.2401,-0.1217l0 -0.1633 3.5344 0c0.3026,0 0.5651,0.0128 0.7892,0.0401 0.2241,0.0272 0.421,0.0704 0.589,0.128 0.1681,0.0576 0.3202,0.1329 0.4562,0.2257 0.2273,0.1553 0.4018,0.3538 0.5251,0.5955 0.1216,0.2417 0.1841,0.517 0.1857,0.8259zm-0.9701 0.0097c0,-0.1969 -0.0384,-0.3666 -0.1136,-0.5107 -0.0753,-0.1424 -0.1889,-0.2577 -0.3378,-0.3441 -0.0848,-0.0481 -0.1793,-0.0865 -0.2833,-0.1137 -0.1056,-0.0288 -0.2337,-0.048 -0.3826,-0.0608 -0.1504,-0.0128 -0.3345,-0.0176 -0.5538,-0.0176l-2.1322 0 0 2.0937 2.1418 0c0.2193,0 0.4018,-0.0064 0.5506,-0.0176 0.1489,-0.0128 0.2738,-0.032 0.3778,-0.0608 0.104,-0.0272 0.1969,-0.0656 0.2817,-0.1137 0.1489,-0.0912 0.2625,-0.2065 0.3378,-0.3489 0.0752,-0.1409 0.1136,-0.309 0.1136,-0.5058z"/>
   <path id="_20260430412345678910" class="fil1" d="M60.9064 78.2972l0 -0.1633c0.1729,-0.0192 0.2593,-0.0864 0.2593,-0.2017 0,-0.024 -0.008,-0.0624 -0.0224,-0.1136 -0.016,-0.0496 -0.04,-0.1121 -0.0736,-0.1841l-0.4514 -1.0277 -3.3135 0 -0.4802 1.0853c-0.0224,0.0464 -0.0385,0.0849 -0.0497,0.1105 -0.0112,0.0272 -0.0192,0.0512 -0.0224,0.0688 -0.0032,0.0192 -0.0048,0.04 -0.0048,0.0608 -0.0016,0.0577 0.016,0.1009 0.0561,0.1329 0.04,0.032 0.1136,0.0544 0.2225,0.0688l0 0.1633 -1.6136 0 0 -0.1633c0.0913,-0.024 0.1649,-0.0576 0.2241,-0.1024 0.0577,-0.0432 0.1105,-0.1105 0.1601,-0.2001 0.0496,-0.088 0.1073,-0.2113 0.1729,-0.3698l2.1802 -4.9366c0.0336,-0.08 0.056,-0.1408 0.0688,-0.1825 0.0128,-0.0416 0.0176,-0.0736 0.0176,-0.096 0.0016,-0.056 -0.0128,-0.0977 -0.0448,-0.1249 -0.0304,-0.0272 -0.0865,-0.0496 -0.1665,-0.0672l0 -0.1537 1.9593 0 0 0.1537c-0.0721,0.0144 -0.1265,0.0384 -0.1649,0.072 -0.0368,0.0337 -0.056,0.0769 -0.056,0.1297 0,0.0144 0.0016,0.032 0.008,0.0512 0.0048,0.0176 0.0144,0.0432 0.0288,0.0769 0.0144,0.0336 0.0336,0.0816 0.0592,0.1408l2.1802 4.9366c0.064,0.1393 0.1152,0.2513 0.1569,0.333 0.04,0.0816 0.0784,0.144 0.1152,0.1873 0.0352,0.0416 0.0769,0.0736 0.1249,0.0944 0.048,0.0208 0.1104,0.04 0.1889,0.0576l0 0.1633 -1.7192 0zm-1.9497 -5.4841l-1.3446 3.0734 2.6892 0 -1.3446 -3.0734z"/>
   <path id="_2026043041234567891011" class="fil1" d="M68.561 78.2972l0 -0.1633c0.0721,-0.0192 0.1281,-0.0432 0.1649,-0.0736 0.0368,-0.0288 0.056,-0.0656 0.056,-0.1089 0.0016,-0.0336 -0.0032,-0.064 -0.0112,-0.0912 -0.0096,-0.0272 -0.0272,-0.0592 -0.056,-0.096 -0.0304,-0.0369 -0.0736,-0.0865 -0.1344,-0.1489l-3.9666 -4.562 0 4.6965c-0.0016,0.0848 0.0048,0.152 0.0192,0.2 0.0144,0.0481 0.0432,0.0849 0.0864,0.1121 0.0432,0.0272 0.1073,0.0512 0.1921,0.072l0 0.1633 -1.4887 0 0 -0.1633c0.0801,-0.0208 0.1409,-0.0448 0.1841,-0.072 0.0432,-0.0272 0.0737,-0.064 0.0897,-0.1121 0.0176,-0.048 0.0256,-0.1152 0.024,-0.2l0 -5.3016c0.0016,-0.0849 -0.0064,-0.1521 -0.024,-0.2033 -0.016,-0.0496 -0.0465,-0.088 -0.0897,-0.1169 -0.0432,-0.0272 -0.104,-0.0528 -0.1841,-0.0736l0 -0.1537 2.0746 0 0 0.1537c-0.0769,0.024 -0.1345,0.0528 -0.1729,0.088 -0.0384,0.0337 -0.0576,0.0753 -0.0576,0.1233 0,0.024 0.0048,0.0496 0.016,0.0752 0.0128,0.0272 0.0352,0.0593 0.0672,0.0977 0.032,0.04 0.0768,0.0912 0.1377,0.1536l3.5632 4.1203 0 -4.2643c0.0016,-0.0849 -0.0064,-0.1521 -0.0224,-0.2033 -0.0145,-0.0496 -0.0449,-0.088 -0.0897,-0.1169 -0.0448,-0.0272 -0.1088,-0.0528 -0.1953,-0.0736l0 -0.1537 1.4983 0 0 0.1537c-0.0784,0.0208 -0.1409,0.0464 -0.1841,0.0736 -0.0432,0.0289 -0.0736,0.0673 -0.0896,0.1169 -0.016,0.0512 -0.024,0.1184 -0.024,0.2033l0 5.3016c0,0.0848 0.008,0.152 0.024,0.2 0.016,0.0481 0.0464,0.0849 0.0896,0.1121 0.0432,0.0272 0.1057,0.0512 0.1841,0.072l0 0.1633 -1.6808 0z"/>
   <path id="_202604304123456789101112" class="fil1" d="M71.7784 78.2972l0 -0.1633c0.0849,-0.0208 0.1489,-0.0448 0.1921,-0.072 0.0432,-0.0272 0.0721,-0.064 0.0865,-0.1121 0.0144,-0.048 0.0208,-0.1152 0.0192,-0.2l0 -5.3016c0.0016,-0.0849 -0.0048,-0.1521 -0.0192,-0.2033 -0.0144,-0.0496 -0.0433,-0.088 -0.0865,-0.1169 -0.0432,-0.0272 -0.1072,-0.0528 -0.1921,-0.0736l0 -0.1537 1.604 0 0 0.1537c-0.0801,0.0208 -0.1409,0.0464 -0.1841,0.0736 -0.0432,0.0289 -0.0737,0.0673 -0.0897,0.1169 -0.0176,0.0512 -0.0256,0.1184 -0.024,0.2033l0 5.3016c-0.0016,0.0848 0.0064,0.152 0.024,0.2 0.016,0.0481 0.0465,0.0849 0.0897,0.1121 0.0432,0.0272 0.104,0.0512 0.1841,0.072l0 0.1633 -1.604 0z"/>
   <path id="_20260430412345678910111213" class="fil1" d="M79.7116 78.2972l0 -0.1633c0.1729,-0.0192 0.2593,-0.0864 0.2593,-0.2017 0,-0.024 -0.008,-0.0624 -0.0224,-0.1136 -0.016,-0.0496 -0.04,-0.1121 -0.0736,-0.1841l-0.4514 -1.0277 -3.3135 0 -0.4802 1.0853c-0.0224,0.0464 -0.0385,0.0849 -0.0497,0.1105 -0.0112,0.0272 -0.0192,0.0512 -0.0224,0.0688 -0.0032,0.0192 -0.0048,0.04 -0.0048,0.0608 -0.0016,0.0577 0.016,0.1009 0.0561,0.1329 0.04,0.032 0.1136,0.0544 0.2225,0.0688l0 0.1633 -1.6136 0 0 -0.1633c0.0913,-0.024 0.1649,-0.0576 0.2241,-0.1024 0.0577,-0.0432 0.1105,-0.1105 0.1601,-0.2001 0.0496,-0.088 0.1073,-0.2113 0.1729,-0.3698l2.1802 -4.9366c0.0336,-0.08 0.056,-0.1408 0.0688,-0.1825 0.0128,-0.0416 0.0176,-0.0736 0.0176,-0.096 0.0016,-0.056 -0.0128,-0.0977 -0.0448,-0.1249 -0.0304,-0.0272 -0.0865,-0.0496 -0.1665,-0.0672l0 -0.1537 1.9593 0 0 0.1537c-0.0721,0.0144 -0.1265,0.0384 -0.1649,0.072 -0.0368,0.0337 -0.056,0.0769 -0.056,0.1297 0,0.0144 0.0016,0.032 0.008,0.0512 0.0048,0.0176 0.0144,0.0432 0.0288,0.0769 0.0144,0.0336 0.0336,0.0816 0.0592,0.1408l2.1802 4.9366c0.064,0.1393 0.1152,0.2513 0.1569,0.333 0.04,0.0816 0.0784,0.144 0.1152,0.1873 0.0352,0.0416 0.0769,0.0736 0.1249,0.0944 0.048,0.0208 0.1104,0.04 0.1889,0.0576l0 0.1633 -1.7192 0zm-1.9497 -5.4841l-1.3446 3.0734 2.6892 0 -1.3446 -3.0734z"/>
   <path id="_2026043041234567891011121314" class="fil1" d="M90.1322 78.2972l0 -0.1633c0.0721,-0.0192 0.1281,-0.0432 0.1649,-0.0736 0.0368,-0.0288 0.056,-0.0656 0.056,-0.1089 0.0016,-0.0336 -0.0032,-0.064 -0.0112,-0.0912 -0.0096,-0.0272 -0.0272,-0.0592 -0.056,-0.096 -0.0304,-0.0369 -0.0736,-0.0865 -0.1344,-0.1489l-3.9666 -4.562 0 4.6965c-0.0016,0.0848 0.0048,0.152 0.0192,0.2 0.0144,0.0481 0.0432,0.0849 0.0864,0.1121 0.0432,0.0272 0.1073,0.0512 0.1921,0.072l0 0.1633 -1.4887 0 0 -0.1633c0.0801,-0.0208 0.1409,-0.0448 0.1841,-0.072 0.0432,-0.0272 0.0737,-0.064 0.0897,-0.1121 0.0176,-0.048 0.0256,-0.1152 0.024,-0.2l0 -5.3016c0.0016,-0.0849 -0.0064,-0.1521 -0.024,-0.2033 -0.016,-0.0496 -0.0465,-0.088 -0.0897,-0.1169 -0.0432,-0.0272 -0.104,-0.0528 -0.1841,-0.0736l0 -0.1537 2.0746 0 0 0.1537c-0.0769,0.024 -0.1345,0.0528 -0.1729,0.088 -0.0384,0.0337 -0.0576,0.0753 -0.0576,0.1233 0,0.024 0.0048,0.0496 0.016,0.0752 0.0128,0.0272 0.0352,0.0593 0.0672,0.0977 0.032,0.04 0.0768,0.0912 0.1377,0.1536l3.5632 4.1203 0 -4.2643c0.0016,-0.0849 -0.0064,-0.1521 -0.0224,-0.2033 -0.0145,-0.0496 -0.0449,-0.088 -0.0897,-0.1169 -0.0448,-0.0272 -0.1088,-0.0528 -0.1953,-0.0736l0 -0.1537 1.4983 0 0 0.1537c-0.0784,0.0208 -0.1409,0.0464 -0.1841,0.0736 -0.0432,0.0289 -0.0736,0.0673 -0.0896,0.1169 -0.016,0.0512 -0.024,0.1184 -0.024,0.2033l0 5.3016c0,0.0848 0.008,0.152 0.024,0.2 0.016,0.0481 0.0464,0.0849 0.0896,0.1121 0.0432,0.0272 0.1057,0.0512 0.1841,0.072l0 0.1633 -1.6808 0z"/>
   <path id="_202604304123456789101112131415" class="fil1" d="M98.1518 78.2972l0 -0.1633c0.1729,-0.0192 0.2593,-0.0864 0.2593,-0.2017 0,-0.024 -0.008,-0.0624 -0.0224,-0.1136 -0.016,-0.0496 -0.04,-0.1121 -0.0736,-0.1841l-0.4514 -1.0277 -3.3135 0 -0.4802 1.0853c-0.0224,0.0464 -0.0385,0.0849 -0.0497,0.1105 -0.0112,0.0272 -0.0192,0.0512 -0.0224,0.0688 -0.0032,0.0192 -0.0048,0.04 -0.0048,0.0608 -0.0016,0.0577 0.016,0.1009 0.0561,0.1329 0.04,0.032 0.1136,0.0544 0.2225,0.0688l0 0.1633 -1.6136 0 0 -0.1633c0.0913,-0.024 0.1649,-0.0576 0.2241,-0.1024 0.0577,-0.0432 0.1105,-0.1105 0.1601,-0.2001 0.0496,-0.088 0.1073,-0.2113 0.1729,-0.3698l2.1802 -4.9366c0.0336,-0.08 0.056,-0.1408 0.0688,-0.1825 0.0128,-0.0416 0.0176,-0.0736 0.0176,-0.096 0.0016,-0.056 -0.0128,-0.0977 -0.0448,-0.1249 -0.0304,-0.0272 -0.0865,-0.0496 -0.1665,-0.0672l0 -0.1537 1.9593 0 0 0.1537c-0.0721,0.0144 -0.1265,0.0384 -0.1649,0.072 -0.0368,0.0337 -0.056,0.0769 -0.056,0.1297 0,0.0144 0.0016,0.032 0.008,0.0512 0.0048,0.0176 0.0144,0.0432 0.0288,0.0769 0.0144,0.0336 0.0336,0.0816 0.0592,0.1408l2.1802 4.9366c0.064,0.1393 0.1152,0.2513 0.1569,0.333 0.04,0.0816 0.0784,0.144 0.1152,0.1873 0.0352,0.0416 0.0769,0.0736 0.1249,0.0944 0.048,0.0208 0.1104,0.04 0.1889,0.0576l0 0.1633 -1.7192 0zm-1.9497 -5.4841l-1.3446 3.0734 2.6892 0 -1.3446 -3.0734z"/>
   <path id="_20260430412345678910111213141516" class="fil1" d="M106.978 72.0544c-0.0705,0.032 -0.1297,0.0656 -0.1777,0.1025 -0.048,0.0352 -0.0913,0.08 -0.1297,0.136 -0.0384,0.056 -0.0784,0.1297 -0.1216,0.2225 -0.0432,0.0913 -0.0961,0.2097 -0.1569,0.3554l-2.0649 4.6581c-0.0384,0.0864 -0.0672,0.16 -0.0865,0.2225 -0.0192,0.0608 -0.0288,0.1088 -0.0288,0.1424 0,0.0624 0.0224,0.1137 0.0657,0.1521 0.0448,0.04 0.112,0.0688 0.2033,0.088l0 0.1633 -1.9881 0 0 -0.1633c0.0816,-0.0192 0.144,-0.048 0.1856,-0.0864 0.0433,-0.0384 0.0641,-0.0865 0.0641,-0.1441 0,-0.0432 -0.0096,-0.096 -0.0272,-0.1584 -0.0192,-0.0625 -0.0449,-0.1345 -0.0785,-0.2161l-2.1705 -4.8982c-0.0577,-0.1393 -0.1073,-0.2449 -0.1457,-0.3202 -0.04,-0.0752 -0.0848,-0.1296 -0.1345,-0.1665 -0.0496,-0.0368 -0.12,-0.0656 -0.2097,-0.0896l0 -0.1537 1.796 0 0 0.1537c-0.0912,0.024 -0.1584,0.0544 -0.2033,0.0928 -0.0432,0.0385 -0.0656,0.0849 -0.0656,0.1377 0,0.04 0.0112,0.0961 0.032,0.1681 0.0208,0.072 0.0497,0.1472 0.0833,0.2257l1.9304 4.418 1.9209 -4.418c0.0384,-0.0913 0.0688,-0.1681 0.0912,-0.2337 0.0224,-0.064 0.0336,-0.1169 0.0336,-0.1601 0,-0.0528 -0.024,-0.0992 -0.0704,-0.1377 -0.048,-0.0384 -0.1168,-0.0688 -0.2081,-0.0928l0 -0.1537 1.6616 0 0 0.1537z"/>
   <path id="_2026043041234567891011121314151617" class="fil1" d="M107.814 78.2972l0 -0.1633c0.0849,-0.0208 0.1489,-0.0448 0.1921,-0.072 0.0432,-0.0272 0.0721,-0.064 0.0865,-0.1121 0.0144,-0.048 0.0208,-0.1152 0.0192,-0.2l0 -5.3016c0.0016,-0.0849 -0.0048,-0.1521 -0.0192,-0.2033 -0.0144,-0.0496 -0.0433,-0.088 -0.0865,-0.1169 -0.0432,-0.0272 -0.1072,-0.0528 -0.1921,-0.0736l0 -0.1537 1.604 0 0 0.1537c-0.0801,0.0208 -0.1409,0.0464 -0.1841,0.0736 -0.0432,0.0289 -0.0737,0.0673 -0.0897,0.1169 -0.0176,0.0512 -0.0256,0.1184 -0.024,0.2033l0 5.3016c-0.0016,0.0848 0.0064,0.152 0.024,0.2 0.016,0.0481 0.0465,0.0849 0.0897,0.1121 0.0432,0.0272 0.104,0.0512 0.1841,0.072l0 0.1633 -1.604 0z"/>
   <path id="_202604304123456789101112131415161718" class="fil1" d="M116.64 78.5949c-0.0208,-0.08 -0.0464,-0.1408 -0.0736,-0.184 -0.0289,-0.0433 -0.0689,-0.0737 -0.1185,-0.0897 -0.0496,-0.0176 -0.1168,-0.0256 -0.2017,-0.024l-5.292 0 0 -0.1633c0.0801,-0.0208 0.1409,-0.0448 0.1841,-0.072 0.0432,-0.0272 0.0737,-0.064 0.0897,-0.1121 0.0176,-0.048 0.0256,-0.1152 0.024,-0.2l0 -5.3016c0.0016,-0.0849 -0.0064,-0.1537 -0.024,-0.2033 -0.016,-0.0496 -0.0465,-0.088 -0.0897,-0.1169 -0.0432,-0.0272 -0.104,-0.0528 -0.1841,-0.0736l0 -0.1537 5.244 0c0.0848,0 0.1521,-0.008 0.2017,-0.0272 0.0496,-0.0176 0.0896,-0.0496 0.1184,-0.0944 0.0272,-0.0448 0.0529,-0.1057 0.0737,-0.1857l0.1536 0 0 1.4406 -0.1536 0c-0.0208,-0.08 -0.0465,-0.1424 -0.0737,-0.1872 -0.0288,-0.0449 -0.0688,-0.0753 -0.1184,-0.0945 -0.0496,-0.0176 -0.1169,-0.0272 -0.2017,-0.0256l-3.9378 0 0 1.8728 2.526 0c0.0848,0 0.152,-0.0064 0.2016,-0.024 0.0497,-0.016 0.0897,-0.0464 0.1185,-0.0896 0.0272,-0.0432 0.0528,-0.1057 0.0736,-0.1841l0.1537 0 0 1.4118 -0.1537 0c-0.0208,-0.0864 -0.0464,-0.152 -0.0736,-0.1968 -0.0288,-0.0465 -0.0688,-0.0785 -0.1185,-0.0961 -0.0496,-0.0176 -0.1168,-0.0256 -0.2016,-0.024l-2.526 0 0 2.0649 3.9858 0c0.0849,0.0016 0.1521,-0.0064 0.2017,-0.0224 0.0496,-0.016 0.0896,-0.0448 0.1185,-0.0896 0.0272,-0.0448 0.0528,-0.1105 0.0736,-0.1953l0.1537 0 0 1.4406 -0.1537 0z"/>
   <path id="_20260430412345678910111213141516171819" class="fil1" d="M122.979 78.2972l0 -0.1537c0.0896,-0.0144 0.1488,-0.032 0.1793,-0.056 0.0304,-0.0224 0.0448,-0.056 0.0416,-0.0976 0.0016,-0.0208 -0.0032,-0.0417 -0.0096,-0.0609 -0.008,-0.0192 -0.024,-0.0464 -0.0465,-0.0832 -0.024,-0.0368 -0.0592,-0.0912 -0.1072,-0.1633 -0.0384,-0.0576 -0.0752,-0.1152 -0.1105,-0.1729 -0.0352,-0.0576 -0.072,-0.1152 -0.1104,-0.1728 -0.0192,-0.0272 -0.056,-0.0865 -0.1137,-0.1745 -0.056,-0.0896 -0.1248,-0.1969 -0.2032,-0.3234 -0.0801,-0.1248 -0.1633,-0.2577 -0.2498,-0.3953 -0.0864,-0.1377 -0.1696,-0.2706 -0.2497,-0.3954 -0.0784,-0.1265 -0.1472,-0.2337 -0.2033,-0.3234 -0.0576,-0.088 -0.0944,-0.1472 -0.1136,-0.1744l-2.161 0 0 2.1994c-0.0016,0.0848 0.0064,0.152 0.0224,0.2016 0.016,0.0497 0.0449,0.0897 0.0897,0.1169 0.0448,0.0288 0.1104,0.0544 0.1953,0.0752l0 0.1537 -1.6136 0 0 -0.1537c0.0849,-0.0208 0.1505,-0.0464 0.1953,-0.0752 0.0448,-0.0272 0.0737,-0.0672 0.0897,-0.1169 0.016,-0.0496 0.024,-0.1168 0.0224,-0.2016l0 -5.3016c0.0016,-0.0849 -0.0064,-0.1521 -0.0224,-0.2001 -0.016,-0.048 -0.0449,-0.0848 -0.0897,-0.1121 -0.0448,-0.0272 -0.1104,-0.0512 -0.1953,-0.072l0 -0.1633 3.6305 0c0.1104,0 0.2145,0.0016 0.3121,0.0064 0.0976,0.0032 0.1921,0.008 0.2833,0.0128 0.2866,0.0129 0.5331,0.0449 0.7428,0.0929 0.2113,0.0496 0.3985,0.1248 0.5634,0.2241 0.2561,0.1553 0.4546,0.3601 0.5939,0.6147 0.1408,0.2545 0.2113,0.5458 0.2129,0.874 -0.0016,0.3329 -0.0721,0.6258 -0.2113,0.8755 -0.1393,0.2498 -0.341,0.453 -0.6051,0.6083 -0.2641,0.1553 -0.5842,0.2593 -0.9604,0.3122 0.2113,0.3265 0.421,0.6514 0.6291,0.9748 0.2081,0.3233 0.4178,0.6483 0.629,0.9748 0.0417,0.0705 0.0833,0.1377 0.1233,0.2017 0.0384,0.064 0.0848,0.1313 0.1361,0.2017 0.0576,0.0816 0.1216,0.1457 0.192,0.1921 0.0721,0.0464 0.1553,0.072 0.2498,0.0768l0 0.1537 -1.7576 0zm0.5474 -4.5716c0,-0.1937 -0.04,-0.3634 -0.1184,-0.5107 -0.0785,-0.1472 -0.1921,-0.2609 -0.3426,-0.3441 -0.088,-0.0481 -0.1857,-0.0865 -0.2961,-0.1137 -0.1105,-0.0288 -0.2433,-0.048 -0.4002,-0.0608 -0.1553,-0.0128 -0.3458,-0.0176 -0.5715,-0.0176l-2.2762 0 0 2.0937 2.3339 0c0.2193,0 0.4033,-0.0048 0.5538,-0.016 0.1505,-0.0112 0.2785,-0.0304 0.3842,-0.0576 0.1072,-0.0288 0.2033,-0.0672 0.2913,-0.1185 0.1489,-0.0832 0.2593,-0.1985 0.333,-0.3441 0.0736,-0.1473 0.1088,-0.317 0.1088,-0.5106z"/>
   <path id="_2026043041234567891011121314151617181920" class="fil1" d="M130.759 78.2972l0 -0.1633c0.1729,-0.0192 0.2593,-0.0864 0.2593,-0.2017 0,-0.024 -0.008,-0.0624 -0.0224,-0.1136 -0.016,-0.0496 -0.04,-0.1121 -0.0736,-0.1841l-0.4514 -1.0277 -3.3135 0 -0.4802 1.0853c-0.0224,0.0464 -0.0385,0.0849 -0.0497,0.1105 -0.0112,0.0272 -0.0192,0.0512 -0.0224,0.0688 -0.0032,0.0192 -0.0048,0.04 -0.0048,0.0608 -0.0016,0.0577 0.016,0.1009 0.0561,0.1329 0.04,0.032 0.1136,0.0544 0.2225,0.0688l0 0.1633 -1.6136 0 0 -0.1633c0.0913,-0.024 0.1649,-0.0576 0.2241,-0.1024 0.0577,-0.0432 0.1105,-0.1105 0.1601,-0.2001 0.0496,-0.088 0.1073,-0.2113 0.1729,-0.3698l2.1802 -4.9366c0.0336,-0.08 0.056,-0.1408 0.0688,-0.1825 0.0128,-0.0416 0.0176,-0.0736 0.0176,-0.096 0.0016,-0.056 -0.0128,-0.0977 -0.0448,-0.1249 -0.0304,-0.0272 -0.0865,-0.0496 -0.1665,-0.0672l0 -0.1537 1.9593 0 0 0.1537c-0.0721,0.0144 -0.1265,0.0384 -0.1649,0.072 -0.0368,0.0337 -0.056,0.0769 -0.056,0.1297 0,0.0144 0.0016,0.032 0.008,0.0512 0.0048,0.0176 0.0144,0.0432 0.0288,0.0769 0.0144,0.0336 0.0336,0.0816 0.0592,0.1408l2.1802 4.9366c0.064,0.1393 0.1152,0.2513 0.1569,0.333 0.04,0.0816 0.0784,0.144 0.1152,0.1873 0.0352,0.0416 0.0769,0.0736 0.1249,0.0944 0.048,0.0208 0.1104,0.04 0.1889,0.0576l0 0.1633 -1.7192 0zm-1.9497 -5.4841l-1.3446 3.0734 2.6892 0 -1.3446 -3.0734z"/>
   <path id="_202604304123456789101112131415161718192021" class="fil1" d="M142.216 76.3187c-0.0016,0.309 -0.072,0.5907 -0.2129,0.8436 -0.1408,0.2545 -0.3441,0.4738 -0.6083,0.6595 -0.2641,0.1857 -0.5826,0.3281 -0.954,0.429 -0.3714,0.0992 -0.7875,0.1504 -1.2501,0.152 -0.0577,0 -0.1137,-0.0016 -0.1665,-0.0048 -0.0544,-0.0032 -0.1073,-0.0048 -0.1601,-0.0048 -0.3393,-0.016 -0.6531,-0.0512 -0.9412,-0.104 -0.2865,-0.0544 -0.5619,-0.1297 -0.826,-0.2273 -0.2657,-0.096 -0.5346,-0.2161 -0.8067,-0.3602 -0.0641,-0.0336 -0.1217,-0.0592 -0.1713,-0.0784 -0.0512,-0.0176 -0.0865,-0.0272 -0.1073,-0.0272 -0.024,0 -0.0464,0.0048 -0.0656,0.016 -0.0192,0.0096 -0.0416,0.0288 -0.0672,0.0544 -0.024,0.0272 -0.0561,0.064 -0.0977,0.1121 -0.0192,-0.0144 -0.04,-0.0272 -0.064,-0.0384 -0.0224,-0.0113 -0.0464,-0.0241 -0.0704,-0.0385 0.1296,-0.2305 0.2577,-0.4594 0.3825,-0.6867 0.1249,-0.2273 0.2465,-0.4562 0.3666,-0.6867 0.024,0.0144 0.048,0.0272 0.072,0.0384 0.024,0.0112 0.0481,0.024 0.0721,0.0385 -0.024,0.0576 -0.0433,0.104 -0.0561,0.1376 -0.0144,0.0352 -0.0208,0.0592 -0.0208,0.0736 -0.0016,0.0705 0.0481,0.1457 0.1473,0.2257 0.1008,0.0801 0.2625,0.1745 0.4866,0.2834 0.2193,0.112 0.4386,0.2033 0.6563,0.2769 0.2177,0.072 0.4434,0.1249 0.6755,0.1601 0.2337,0.0352 0.485,0.0528 0.7523,0.0528 0.4162,-0.0016 0.7764,-0.0512 1.0805,-0.1505 0.3058,-0.0992 0.5427,-0.2385 0.7108,-0.4194 0.168,-0.1792 0.2529,-0.3889 0.2545,-0.6306 0,-0.1873 -0.0497,-0.3458 -0.1505,-0.4771 -0.1008,-0.1296 -0.2529,-0.2337 -0.4546,-0.3105 -0.0592,-0.0256 -0.1185,-0.0448 -0.1777,-0.0608 -0.0592,-0.016 -0.128,-0.0304 -0.2081,-0.04 -0.0784,-0.0112 -0.1777,-0.0192 -0.2961,-0.0273 -0.1185,-0.0064 -0.2673,-0.0144 -0.4466,-0.0208 -0.1793,-0.0064 -0.3986,-0.0144 -0.6579,-0.024 -0.2721,-0.0112 -0.5154,-0.0288 -0.7299,-0.0512 -0.2129,-0.024 -0.4034,-0.0528 -0.5731,-0.0896 -0.1681,-0.0369 -0.3217,-0.0801 -0.4594,-0.1329 -0.1377,-0.0528 -0.2673,-0.1152 -0.389,-0.1873 -0.2257,-0.1312 -0.3953,-0.3057 -0.5106,-0.5202 -0.1136,-0.2145 -0.1713,-0.4578 -0.1713,-0.7283 0.0016,-0.2914 0.0737,-0.5571 0.2161,-0.7956 0.1425,-0.2385 0.3458,-0.4434 0.6115,-0.6147 0.2641,-0.1728 0.5827,-0.3057 0.9508,-0.3985 0.3698,-0.0929 0.7828,-0.1393 1.2374,-0.1409 0.3185,0 0.6163,0.0224 0.8948,0.0672 0.2785,0.0448 0.549,0.1073 0.8099,0.1889 0.261,0.0816 0.5251,0.1793 0.7924,0.2913 0.0336,0.0128 0.0608,0.0224 0.0832,0.0256 0.0224,0.0048 0.0433,0.008 0.0609,0.0129 0.0096,0.0048 0.0192,0.0064 0.0304,0.008 0.0112,0.0016 0.0224,0.0016 0.0368,0.0016 0.0368,0.0016 0.0704,-0.0096 0.1008,-0.0321 0.032,-0.024 0.0753,-0.0704 0.1297,-0.1408 0.024,0.0128 0.0464,0.024 0.0672,0.0336 0.0208,0.008 0.0432,0.0192 0.0673,0.0336l-0.6916 1.3254c-0.024,-0.0144 -0.048,-0.0256 -0.072,-0.0336 -0.024,-0.0096 -0.048,-0.0208 -0.072,-0.0336 0.032,-0.0753 0.0528,-0.1297 0.0592,-0.1633 0.0064,-0.0336 0.0096,-0.0592 0.008,-0.0768 0,-0.0481 -0.0288,-0.0977 -0.0848,-0.1505 -0.0561,-0.0512 -0.1409,-0.104 -0.2513,-0.1569 -0.2898,-0.1392 -0.6035,-0.2449 -0.9413,-0.3153 -0.3377,-0.072 -0.6899,-0.1073 -1.0564,-0.1073 -0.2994,0 -0.5715,0.0289 -0.818,0.0849 -0.2449,0.056 -0.4578,0.1344 -0.6371,0.2353 -0.1793,0.1008 -0.3169,0.2193 -0.4146,0.3569 -0.0976,0.1361 -0.1456,0.285 -0.1472,0.4466 0,0.0913 0.0192,0.1777 0.0544,0.2626 0.0368,0.0848 0.088,0.1616 0.1537,0.2305 0.0656,0.0672 0.144,0.12 0.2337,0.16 0.0736,0.0385 0.1552,0.0705 0.2449,0.0961 0.0896,0.024 0.1953,0.0448 0.3169,0.0608 0.1217,0.016 0.2657,0.0288 0.4322,0.0384 0.1665,0.0096 0.3634,0.0192 0.5907,0.0256 0.12,0.0048 0.2337,0.0096 0.3409,0.0144 0.1073,0.0048 0.2113,0.0096 0.3122,0.0144 0.2481,0.0112 0.4674,0.0273 0.6579,0.0465 0.1888,0.0192 0.3553,0.0448 0.4994,0.0752 0.144,0.032 0.2721,0.0704 0.3858,0.1153 0.112,0.0464 0.216,0.1024 0.3105,0.1664 0.2353,0.1585 0.413,0.3458 0.5314,0.5635 0.1201,0.2193 0.1793,0.469 0.1793,0.7523z"/>
   <path id="_20260430412345678910111213141516171819202122" class="fil1" d="M144.771 77.7882c-0.0017,0.12 -0.0273,0.2257 -0.0817,0.3201 -0.0528,0.0929 -0.1264,0.1665 -0.2209,0.2209 -0.096,0.0544 -0.2049,0.0817 -0.3313,0.0833 -0.1137,-0.0016 -0.2161,-0.0289 -0.309,-0.0833 -0.0928,-0.0544 -0.1664,-0.128 -0.2209,-0.2209 -0.0544,-0.0944 -0.0832,-0.2001 -0.0848,-0.3201 0.0016,-0.1137 0.0304,-0.2177 0.0848,-0.3106 0.0561,-0.0944 0.1297,-0.1696 0.2241,-0.2273 0.0945,-0.056 0.1985,-0.0848 0.3154,-0.0864 0.1168,0.0016 0.2225,0.0304 0.3153,0.0864 0.0945,0.0577 0.1681,0.1329 0.2241,0.2273 0.0544,0.0929 0.0832,0.1969 0.0849,0.3106z"/>
   <path id="_2026043041234567891011121314151617181920212223" class="fil1" d="M151.196 78.2972l0 -0.1633c0.1729,-0.0192 0.2593,-0.0864 0.2593,-0.2017 0,-0.024 -0.008,-0.0624 -0.0224,-0.1136 -0.016,-0.0496 -0.04,-0.1121 -0.0736,-0.1841l-0.4514 -1.0277 -3.3135 0 -0.4802 1.0853c-0.0224,0.0464 -0.0385,0.0849 -0.0497,0.1105 -0.0112,0.0272 -0.0192,0.0512 -0.0224,0.0688 -0.0032,0.0192 -0.0048,0.04 -0.0048,0.0608 -0.0016,0.0577 0.016,0.1009 0.0561,0.1329 0.04,0.032 0.1136,0.0544 0.2225,0.0688l0 0.1633 -1.6136 0 0 -0.1633c0.0913,-0.024 0.1649,-0.0576 0.2241,-0.1024 0.0577,-0.0432 0.1105,-0.1105 0.1601,-0.2001 0.0496,-0.088 0.1073,-0.2113 0.1729,-0.3698l2.1802 -4.9366c0.0336,-0.08 0.056,-0.1408 0.0688,-0.1825 0.0128,-0.0416 0.0176,-0.0736 0.0176,-0.096 0.0016,-0.056 -0.0128,-0.0977 -0.0448,-0.1249 -0.0304,-0.0272 -0.0865,-0.0496 -0.1665,-0.0672l0 -0.1537 1.9593 0 0 0.1537c-0.0721,0.0144 -0.1265,0.0384 -0.1649,0.072 -0.0368,0.0337 -0.056,0.0769 -0.056,0.1297 0,0.0144 0.0016,0.032 0.008,0.0512 0.0048,0.0176 0.0144,0.0432 0.0288,0.0769 0.0144,0.0336 0.0336,0.0816 0.0592,0.1408l2.1802 4.9366c0.064,0.1393 0.1152,0.2513 0.1569,0.333 0.04,0.0816 0.0784,0.144 0.1152,0.1873 0.0352,0.0416 0.0769,0.0736 0.1249,0.0944 0.048,0.0208 0.1104,0.04 0.1889,0.0576l0 0.1633 -1.7192 0zm-1.9497 -5.4841l-1.3446 3.0734 2.6892 0 -1.3446 -3.0734z"/>
   <path id="_202604304123456789101112131415161718192021222324" class="fil1" d="M155.067 77.7882c-0.0017,0.12 -0.0273,0.2257 -0.0817,0.3201 -0.0528,0.0929 -0.1264,0.1665 -0.2209,0.2209 -0.096,0.0544 -0.2049,0.0817 -0.3313,0.0833 -0.1137,-0.0016 -0.2161,-0.0289 -0.309,-0.0833 -0.0928,-0.0544 -0.1664,-0.128 -0.2209,-0.2209 -0.0544,-0.0944 -0.0832,-0.2001 -0.0848,-0.3201 0.0016,-0.1137 0.0304,-0.2177 0.0848,-0.3106 0.0561,-0.0944 0.1297,-0.1696 0.2241,-0.2273 0.0945,-0.056 0.1985,-0.0848 0.3154,-0.0864 0.1168,0.0016 0.2225,0.0304 0.3153,0.0864 0.0945,0.0577 0.1681,0.1329 0.2241,0.2273 0.0544,0.0929 0.0832,0.1969 0.0849,0.3106z"/>
   <g>
    <path id="_202604208" class="fil2" d="M66.9292 44.3903c-0.1888,-0.3378 -0.4659,-0.8025 -0.8337,-1.1996 -0.6611,-0.6613 -1.2197,-0.8244 -1.2197,-0.8244 0,0 0.2564,1.0133 0.8914,1.6806 0.6602,0.6562 1.5074,0.7481 1.5074,0.7485 0,0 -0.2059,-0.1413 -0.3454,-0.4051z"/>
    <path id="_202604112" class="fil2" d="M67.3557 44.7818c0,0 0.457,-0.3128 0.3921,-0.9915 -0.1207,-0.698 -0.672,-1.546 -0.672,-1.5465 0,0 -0.3921,0.201 -0.3229,0.9093 0.0641,0.4036 0.3076,0.8418 0.4669,1.1673 0.1213,0.2445 0.1359,0.4614 0.1359,0.4614z"/>
    <path id="_202604016" class="fil2" d="M67.3439 46.6991c0.7431,0.444 1.583,0.2673 1.583,0.2673 0,0 -0.258,-0.1305 -0.4658,-0.3407 -0.2404,-0.2888 -0.5306,-0.7133 -0.9356,-1.017 -0.7292,-0.4632 -1.3896,-0.4077 -1.3896,-0.4077 0,0 0.483,0.9888 1.208,1.4981z"/>
    <path id="_202603920" class="fil2" d="M69.1367 45.5602c-0.2899,-0.801 -0.905,-1.5577 -0.905,-1.5577 0,0 -0.3454,0.57 -0.1097,1.3629 0.1554,0.4602 0.411,0.797 0.6422,1.1332 0.1763,0.2195 0.2365,0.376 0.2492,0.4062 0,0.0009 0.0009,0.0015 0.0018,0.0035 0.0172,-0.0255 0.3526,-0.5603 0.1215,-1.3481z"/>
    <path id="_202603824" class="fil2" d="M69.6528 49.288c0.7655,0.1184 1.4159,-0.4179 1.4159,-0.4179 0,0 -0.2617,0.0159 -0.5938,-0.2565 -0.2933,-0.2318 -0.7167,-0.5204 -1.1593,-0.6583 -0.7897,-0.202 -1.4338,0.1164 -1.4345,0.1168 0.0007,0 0.8984,1.0017 1.7717,1.2159z"/>
    <path id="_202603728" class="fil2" d="M74.1356 50.1666c1.2061,-0.1459 2.0062,-0.6693 2.4781,-1.6296 0.4201,-0.9777 0.4098,-2.2087 -0.0096,-3.739 0.0153,-0.1045 0.1382,-0.6475 -0.1001,-1.2721 -0.2948,-0.6903 -0.8841,-1.2433 -0.8841,-1.2443 0,0.001 -0.0837,0.7612 0.1423,1.4286 0.2572,0.6 0.7397,1.0297 0.8275,1.0909 0.2879,1.1612 0.3507,2.143 0.1399,3.0165 -0.2338,0.8474 -0.6674,1.4338 -1.3786,1.8236 0.0121,-0.0267 0.0388,-0.1215 0.1336,-0.2164 0.147,-0.1479 0.2935,-0.3507 0.2445,-0.7786 -0.0995,-0.7388 -0.9005,-1.747 -0.9005,-1.7481 0,0.0011 -0.4001,0.3715 -0.3578,1.1012 0.0954,0.7162 0.8139,1.5744 0.8726,1.6469 -0.419,0.2336 -0.8711,0.3296 -1.4211,0.3848 -0.0631,0.0061 -0.2795,0.0331 -0.2908,0.0316 0,0 -0.2158,-0.1229 -0.349,-0.1811 -0.6546,-0.2981 -1.4837,-0.6996 -2.1159,-1.1073 0.0199,-0.077 0.2688,-0.8292 -0.1556,-1.617 -0.483,-0.852 -1.2205,-1.4842 -1.2205,-1.4842 0,0 -0.2087,0.8628 0.2365,1.7395 0.2606,0.4703 0.583,0.7245 0.8824,0.9927 0.1746,0.168 0.2149,0.3297 0.2454,0.3604 -0.8749,-0.5776 -1.6054,-1.2914 -1.9957,-1.6965l-0.1448 -0.1587c0,0 -0.0009,-0.003 -0.0009,-0.0056 -0.2484,-0.2613 -0.4913,-0.5333 -0.7278,-0.8221 -0.8786,-1.1004 -1.5488,-2.2231 -2.129,-3.5398 0.0496,-0.0593 0.2816,-0.395 0.0991,-1.044 -0.2528,-0.7006 -0.9366,-1.6568 -0.9366,-1.6568 0,0 -0.3037,0.5614 -0.1169,1.2899 0.2358,0.6648 0.8456,1.3026 0.9375,1.4047 0.6897,1.7123 1.7259,3.3446 2.9493,4.5991 1.117,1.145 1.6367,1.7032 4.0379,2.8218 0.1025,0.0447 0.2894,0.1397 0.2894,0.1397 -0.5201,0.1036 -0.8031,0.2776 -0.8674,0.3719 0.104,0.0285 0.3479,0.1822 0.3632,0.1934 0.1296,-0.196 0.3583,-0.3581 0.7775,-0.4245 0.5367,0.2796 0.9206,0.5551 1.2057,0.8169 0.0291,-0.0088 0.1816,-0.0607 0.2806,-0.0678 -0.1383,-0.1032 -0.5847,-0.4461 -1.2735,-0.7889 0,0 0.1373,-0.0133 0.2332,-0.0317z"/>
    <path id="_202603632" class="fil3 str0" d="M69.0134 46.9048c0,0.0026 0.0009,0.0056 0.0009,0.0056"/>
    <path id="_202603536" class="fil2" d="M77.9205 46.2879c0.2019,-0.5654 -0.123,-1.4562 -0.123,-1.4562 0,0 -0.4632,0.098 -0.696,0.6225 -0.1311,0.2856 -0.0862,0.7259 -0.0607,1.0077 0.0032,0.2122 -0.096,0.3214 -0.096,0.3214 0,0 0.7288,0.0331 0.9757,-0.4954z"/>
    <path id="_202603440" class="fil2" d="M76.8474 46.7512c0,0 -0.1239,-0.2062 -0.1735,-0.4311 -0.0402,-0.2873 -0.0963,-0.6592 -0.3046,-1.0572 -0.4133,-0.7118 -0.9836,-1.0475 -0.9836,-1.0475 0,0 -0.0276,0.6856 0.3337,1.3938 0.3825,0.6889 1.1274,1.1409 1.128,1.142z"/>
    <path id="_202603344" class="fil2" d="M78.45 47.3462c0,0 -0.7397,-0.091 -1.2111,0.1876 -0.2532,0.2257 -0.246,0.543 -0.3236,0.7863 -0.0602,0.1608 -0.2857,0.2148 -0.2857,0.2148 0,0 0.9642,0.3449 1.447,0.0383 0.4582,-0.3638 0.3734,-1.227 0.3734,-1.227z"/>
    <path id="_202603248" class="fil2" d="M75.327 45.6542c0,0 -0.1817,0.5673 0.0684,1.3184 0.2882,0.7531 1.0969,1.4766 1.0965,1.4766 0,0 -0.0328,-0.1306 -0.0082,-0.348 0.0346,-0.251 0.0051,-0.6276 -0.1459,-1.0418 -0.3057,-0.7689 -1.0108,-1.4052 -1.0108,-1.4052z"/>
    <path id="_202603128" class="fil2" d="M78.3363 49.6605c0,0 -0.9486,-0.3836 -1.6598,-0.3765 -0.3929,0.0203 -0.6348,0.1846 -0.7945,0.3572 -0.1505,0.1265 -0.4086,0.1367 -0.4086,0.1367 0,0 1.0873,0.7688 1.846,0.8026 0.8103,-0.0107 1.0169,-0.92 1.0169,-0.92z"/>
    <path id="_202603056" class="fil1" d="M73.7774 41.5887c-1.519,-0.3363 -3.2061,-0.821 -4.7516,-1.2501 0.7467,2.3252 1.6947,4.5952 2.4385,6.887 0.655,0.1521 1.281,0.3114 1.9212,0.4552 -0.256,-0.8113 -0.504,-1.545 -0.7743,-2.343 0.6551,0.1499 1.248,0.2923 1.8978,0.4082 -0.1917,-0.5418 -0.3652,-1.0751 -0.5391,-1.6123 -0.6364,-0.1332 -1.2589,-0.2938 -1.8987,-0.4419 -0.1172,-0.3652 -0.2244,-0.6975 -0.3404,-1.0408 0.8766,0.206 1.7333,0.4305 2.6033,0.6061 -0.1923,-0.5571 -0.3657,-1.1092 -0.5567,-1.6684z"/>
   </g>
   <polygon id="_202602912" class="fil0" points="66.1854,79.1104 69.0913,88.1903 70.4213,88.3795 67.4688,79.1198 "/>
   <path id="_202602816" class="fil1" d="M88.4025 51.7458c-3.9769,3.0684 -8.1711,3.5971 -12.9289,2.055 -4.7578,-1.5421 -10.1143,-2.4857 -14.9042,-0.8651l0.912 1.5119c5.0891,-2.0939 9.3896,-0.6247 13.6047,0.7251 4.215,1.3499 9.7652,1.0066 13.507,-1.9496l-0.1906 -1.4773z"/>
   <path id="_202602768" class="fil1" d="M87.9544 50.5315l-4.6373 -13.487c-5.181,2.5711 -8.5178,0.8541 -13.4487,-0.546 -4.6708,-1.3259 -10.6003,-3.0124 -15.0861,-0.1578l5.2711 14.9866 -4.0081 -13.7106c5.0538,-2.4349 8.5485,-0.9685 13.7411,0.5398 4.9982,1.4289 9.1969,2.7135 13.4434,0.4948l4.6865 11.9084c0.0141,-0.0101 0.0258,-0.0193 0.0381,-0.0282z"/>
  </g>
 </g>
</svg>
